solid OpenSCAD_Model
  facet normal 0 -1 0
    outer loop
      vertex 40 -3 1.33227e-15
      vertex 39.454 -3 5.198
      vertex 40 -3 0
    endloop
  endfacet
  facet normal 0 -1 0
    outer loop
      vertex 43.8343 -3 -2
      vertex 43.8343 -3 0
      vertex 40 -3 0
    endloop
  endfacet
  facet normal 0 -1 0
    outer loop
      vertex -3 -3 -2
      vertex 43.8343 -3 -2
      vertex 40 -3 0
    endloop
  endfacet
  facet normal 0 -1 0
    outer loop
      vertex 39.454 -3 5.198
      vertex 37.839 -3 10.168
      vertex 40 -3 0
    endloop
  endfacet
  facet normal 0 -1 0
    outer loop
      vertex 37.839 -3 10.168
      vertex 35.225 -3 14.695
      vertex 40 -3 0
    endloop
  endfacet
  facet normal 0 -1 0
    outer loop
      vertex 35.225 -3 14.695
      vertex 8.09 -3 45.878
      vertex 40 -3 0
    endloop
  endfacet
  facet normal 0 -1 0
    outer loop
      vertex 8.09 -3 45.878
      vertex 6.691 -3 47.431
      vertex 40 -3 0
    endloop
  endfacet
  facet normal 0 -1 0
    outer loop
      vertex 6.691 -3 47.431
      vertex 5 -3 48.66
      vertex 40 -3 0
    endloop
  endfacet
  facet normal 0 -1 0
    outer loop
      vertex 5 -3 48.66
      vertex 3.09 -3 49.511
      vertex 40 -3 0
    endloop
  endfacet
  facet normal 0 -1 0
    outer loop
      vertex 3.09 -3 49.511
      vertex 1.045 -3 49.945
      vertex 40 -3 0
    endloop
  endfacet
  facet normal 0 -1 0
    outer loop
      vertex 1.045 -3 49.945
      vertex -1.045 -3 49.945
      vertex 40 -3 0
    endloop
  endfacet
  facet normal 0 -1 0
    outer loop
      vertex -1.045 -3 49.945
      vertex -3 -3 49.5301
      vertex 40 -3 0
    endloop
  endfacet
  facet normal 0 -1 0
    outer loop
      vertex -3 -3 49.5301
      vertex -3 -3 -2
      vertex 40 -3 0
    endloop
  endfacet
  facet normal 0 0 -1
    outer loop
      vertex 39.7899 122.622 -2
      vertex -3 133 -2
      vertex 39.7899 133 -2
    endloop
  endfacet
  facet normal 0 0 -1
    outer loop
      vertex 17.994 109.859 -2
      vertex -3 133 -2
      vertex 39.7899 122.622 -2
    endloop
  endfacet
  facet normal 0 0 -1
    outer loop
      vertex 101.982 98.029 -2
      vertex 105.5 102 -2
      vertex 103.772 98.708 -2
    endloop
  endfacet
  facet normal 0 0 -1
    outer loop
      vertex 100.7 103.386 -2
      vertex 101.982 105.971 -2
      vertex 103.772 105.292 -2
    endloop
  endfacet
  facet normal 0 0 -1
    outer loop
      vertex 103.1 102 -2
      vertex 103.772 105.292 -2
      vertex 105.042 103.859 -2
    endloop
  endfacet
  facet normal 0 0 -1
    outer loop
      vertex 101.982 98.029 -2
      vertex 105.042 103.859 -2
      vertex 105.5 102 -2
    endloop
  endfacet
  facet normal 0 0 -1
    outer loop
      vertex 103.772 98.708 -2
      vertex 105.5 102 -2
      vertex 105.042 100.141 -2
    endloop
  endfacet
  facet normal 0 0 -1
    outer loop
      vertex 100.082 98.26 -2
      vertex 102.3 100.614 -2
      vertex 101.982 98.029 -2
    endloop
  endfacet
  facet normal 0 0 -1
    outer loop
      vertex 17.994 109.859 -2
      vertex 99.9 102 -2
      vertex 100.7 100.614 -2
    endloop
  endfacet
  facet normal 0 0 -1
    outer loop
      vertex 102.3 100.614 -2
      vertex 105.042 103.859 -2
      vertex 101.982 98.029 -2
    endloop
  endfacet
  facet normal 0 0 -1
    outer loop
      vertex 102.3 103.386 -2
      vertex 103.772 105.292 -2
      vertex 103.1 102 -2
    endloop
  endfacet
  facet normal 0 0 -1
    outer loop
      vertex 16.787 109.619 -2
      vertex -3 133 -2
      vertex 17.994 109.859 -2
    endloop
  endfacet
  facet normal 0 0 -1
    outer loop
      vertex 13.7 19.6 -2
      vertex 1.9 102 -2
      vertex 2.7 100.614 -2
    endloop
  endfacet
  facet normal 0 0 -1
    outer loop
      vertex 15.164 108.536 -2
      vertex -3 133 -2
      vertex 16.787 109.619 -2
    endloop
  endfacet
  facet normal 0 0 -1
    outer loop
      vertex 14.081 106.913 -2
      vertex -3 133 -2
      vertex 15.164 108.536 -2
    endloop
  endfacet
  facet normal 0 0 -1
    outer loop
      vertex 13.7 105 -2
      vertex -3 133 -2
      vertex 14.081 106.913 -2
    endloop
  endfacet
  facet normal 0 0 -1
    outer loop
      vertex -3 -3 -2
      vertex -3 133 -2
      vertex 13.7 19.6 -2
    endloop
  endfacet
  facet normal 0 0 -1
    outer loop
      vertex 4.3 4.38564 -2
      vertex 15.164 16.064 -2
      vertex 16.787 14.981 -2
    endloop
  endfacet
  facet normal 0 0 -1
    outer loop
      vertex 4.3 1.61436 -2
      vertex 16.787 14.981 -2
      vertex 43.8343 -3 -2
    endloop
  endfacet
  facet normal 0 0 -1
    outer loop
      vertex 96.712 12.971 -2
      vertex 43.8343 -3 -2
      vertex 18.496 14.641 -2
    endloop
  endfacet
  facet normal 0 0 -1
    outer loop
      vertex 2.7 1.61436 -2
      vertex -3 -3 -2
      vertex 1.9 3 -2
    endloop
  endfacet
  facet normal 0 0 -1
    outer loop
      vertex 96.712 12.971 -2
      vertex 98.502 12.292 -2
      vertex 43.8343 -3 -2
    endloop
  endfacet
  facet normal 0 0 -1
    outer loop
      vertex 97.03 10.3856 -2
      vertex 98.502 12.292 -2
      vertex 99.772 10.859 -2
    endloop
  endfacet
  facet normal 0 0 -1
    outer loop
      vertex 97.03 7.61436 -2
      vertex 100.23 9 -2
      vertex 99.772 7.141 -2
    endloop
  endfacet
  facet normal 0 0 -1
    outer loop
      vertex 43.8343 -3 -2
      vertex 99.772 7.141 -2
      vertex 98.502 5.708 -2
    endloop
  endfacet
  facet normal 0 0 -1
    outer loop
      vertex 43.8343 -3 -2
      vertex 98.502 5.708 -2
      vertex 96.712 5.029 -2
    endloop
  endfacet
  facet normal 0 0 -1
    outer loop
      vertex 1.9 102 -2
      vertex -3 133 -2
      vertex 2.7 103.386 -2
    endloop
  endfacet
  facet normal 0 0 -1
    outer loop
      vertex 4.3 4.38564 -2
      vertex 16.787 14.981 -2
      vertex 5.1 3 -2
    endloop
  endfacet
  facet normal 0 0 -1
    outer loop
      vertex -3 -3 -2
      vertex 2.7 1.61436 -2
      vertex 43.8343 -3 -2
    endloop
  endfacet
  facet normal 0 0 -1
    outer loop
      vertex 5.1 3 -2
      vertex 16.787 14.981 -2
      vertex 4.3 1.61436 -2
    endloop
  endfacet
  facet normal 0 0 -1
    outer loop
      vertex 2.7 1.61436 -2
      vertex 4.3 1.61436 -2
      vertex 43.8343 -3 -2
    endloop
  endfacet
  facet normal 0 0 -1
    outer loop
      vertex 2.7 4.38564 -2
      vertex 14.081 17.687 -2
      vertex 15.164 16.064 -2
    endloop
  endfacet
  facet normal 0 0 -1
    outer loop
      vertex 2.7 4.38564 -2
      vertex 15.164 16.064 -2
      vertex 4.3 4.38564 -2
    endloop
  endfacet
  facet normal 0 0 -1
    outer loop
      vertex -3 -3 -2
      vertex 13.7 19.6 -2
      vertex 2.7 4.38564 -2
    endloop
  endfacet
  facet normal 0 0 -1
    outer loop
      vertex -3 -3 -2
      vertex 2.7 4.38564 -2
      vertex 1.9 3 -2
    endloop
  endfacet
  facet normal 0 0 -1
    outer loop
      vertex 13.7 19.6 -2
      vertex -3 133 -2
      vertex 1.9 102 -2
    endloop
  endfacet
  facet normal 0 0 -1
    outer loop
      vertex 18.496 14.641 -2
      vertex 43.8343 -3 -2
      vertex 16.787 14.981 -2
    endloop
  endfacet
  facet normal 0 0 -1
    outer loop
      vertex 2.7 103.386 -2
      vertex -3 133 -2
      vertex 4.3 103.386 -2
    endloop
  endfacet
  facet normal 0 0 -1
    outer loop
      vertex 94.63 9 -2
      vertex 43.8343 -3 -2
      vertex 95.43 10.3856 -2
    endloop
  endfacet
  facet normal 0 0 -1
    outer loop
      vertex 4.3 103.386 -2
      vertex -3 133 -2
      vertex 5.1 102 -2
    endloop
  endfacet
  facet normal 0 0 -1
    outer loop
      vertex 102.3 100.614 -2
      vertex 100.082 98.26 -2
      vertex 100.7 100.614 -2
    endloop
  endfacet
  facet normal 0 0 -1
    outer loop
      vertex 95.43 7.61436 -2
      vertex 43.8343 -3 -2
      vertex 94.63 9 -2
    endloop
  endfacet
  facet normal 0 0 -1
    outer loop
      vertex 97.83 9 -2
      vertex 99.772 10.859 -2
      vertex 100.23 9 -2
    endloop
  endfacet
  facet normal 0 0 -1
    outer loop
      vertex 97.83 9 -2
      vertex 100.23 9 -2
      vertex 97.03 7.61436 -2
    endloop
  endfacet
  facet normal 0 0 -1
    outer loop
      vertex 43.8343 -3 -2
      vertex 95.43 7.61436 -2
      vertex 99.772 7.141 -2
    endloop
  endfacet
  facet normal 0 0 -1
    outer loop
      vertex 95.43 7.61436 -2
      vertex 97.03 7.61436 -2
      vertex 99.772 7.141 -2
    endloop
  endfacet
  facet normal 0 0 -1
    outer loop
      vertex 103.1 102 -2
      vertex 105.042 103.859 -2
      vertex 102.3 100.614 -2
    endloop
  endfacet
  facet normal 0 0 -1
    outer loop
      vertex 95.43 10.3856 -2
      vertex 98.502 12.292 -2
      vertex 97.03 10.3856 -2
    endloop
  endfacet
  facet normal 0 0 -1
    outer loop
      vertex 97.03 10.3856 -2
      vertex 99.772 10.859 -2
      vertex 97.83 9 -2
    endloop
  endfacet
  facet normal 0 0 -1
    outer loop
      vertex 43.8343 -3 -2
      vertex 98.502 12.292 -2
      vertex 95.43 10.3856 -2
    endloop
  endfacet
  facet normal 0 0 -1
    outer loop
      vertex 13.7 19.6 -2
      vertex 4.3 100.614 -2
      vertex 5.1 102 -2
    endloop
  endfacet
  facet normal 0 0 -1
    outer loop
      vertex 5.1 102 -2
      vertex -3 133 -2
      vertex 13.7 105 -2
    endloop
  endfacet
  facet normal 0 0 -1
    outer loop
      vertex 13.7 19.6 -2
      vertex 5.1 102 -2
      vertex 13.7 105 -2
    endloop
  endfacet
  facet normal 0 0 -1
    outer loop
      vertex 17.994 109.859 -2
      vertex 39.7899 122.622 -2
      vertex 101.982 105.971 -2
    endloop
  endfacet
  facet normal 0 0 -1
    outer loop
      vertex 17.994 109.859 -2
      vertex 101.982 105.971 -2
      vertex 99.9 102 -2
    endloop
  endfacet
  facet normal 0 0 -1
    outer loop
      vertex 100.7 103.386 -2
      vertex 103.772 105.292 -2
      vertex 102.3 103.386 -2
    endloop
  endfacet
  facet normal 0 0 -1
    outer loop
      vertex 99.9 102 -2
      vertex 101.982 105.971 -2
      vertex 100.7 103.386 -2
    endloop
  endfacet
  facet normal 0 0 -1
    outer loop
      vertex 13.7 19.6 -2
      vertex 2.7 100.614 -2
      vertex 4.3 100.614 -2
    endloop
  endfacet
  facet normal 0 0 -1
    outer loop
      vertex 2.7 4.38564 -2
      vertex 13.7 19.6 -2
      vertex 14.081 17.687 -2
    endloop
  endfacet
  facet normal 0 0 -1
    outer loop
      vertex 17.994 109.859 -2
      vertex 100.7 100.614 -2
      vertex 100.082 98.26 -2
    endloop
  endfacet
  facet normal -1 1.22461e-16 0
    outer loop
      vertex -3 3.23223 38.2322
      vertex -3 10.5 0
      vertex -3 -3 49.5301
    endloop
  endfacet
  facet normal -1 1.22461e-16 0
    outer loop
      vertex -3 -3 -2
      vertex -3 10.5 0
      vertex -3 133 -2
    endloop
  endfacet
  facet normal -1 1.22461e-16 0
    outer loop
      vertex -3 121.5 10
      vertex -3 118.5 0
      vertex -3 133 49.5301
    endloop
  endfacet
  facet normal -1 1.22461e-16 0
    outer loop
      vertex -3 124 42.5
      vertex -3 118.5 49.5301
      vertex -3 133 49.5301
    endloop
  endfacet
  facet normal -1 1.22461e-16 0
    outer loop
      vertex -3 10.5 0
      vertex -3 118.5 0
      vertex -3 133 -2
    endloop
  endfacet
  facet normal -1 1.22461e-16 0
    outer loop
      vertex -3 3.23223 8.23223
      vertex -3 10.5 0
      vertex -3 -3 -2
    endloop
  endfacet
  facet normal -1 1.22461e-16 0
    outer loop
      vertex -3 5 7.5
      vertex -3 10.5 0
      vertex -3 3.23223 8.23223
    endloop
  endfacet
  facet normal -1 1.22461e-16 0
    outer loop
      vertex -3 2.5 10
      vertex -3 3.23223 8.23223
      vertex -3 -3 -2
    endloop
  endfacet
  facet normal -1 1.22461e-16 0
    outer loop
      vertex -3 6.76777 8.23223
      vertex -3 10.5 0
      vertex -3 5 7.5
    endloop
  endfacet
  facet normal -1 1.22461e-16 0
    outer loop
      vertex -3 7.5 10
      vertex -3 10.5 0
      vertex -3 6.76777 8.23223
    endloop
  endfacet
  facet normal -1 1.22461e-16 0
    outer loop
      vertex -3 -3 49.5301
      vertex -3 10.5 0
      vertex -3 7.5 10
    endloop
  endfacet
  facet normal -1 1.22461e-16 0
    outer loop
      vertex -3 -3 49.5301
      vertex -3 7.5 10
      vertex -3 6.76777 11.7678
    endloop
  endfacet
  facet normal -1 1.22461e-16 0
    outer loop
      vertex -3 3.23223 11.7678
      vertex -3 -3 49.5301
      vertex -3 5 12.5
    endloop
  endfacet
  facet normal -1 1.22461e-16 0
    outer loop
      vertex -3 2.5 10
      vertex -3 -3 49.5301
      vertex -3 3.23223 11.7678
    endloop
  endfacet
  facet normal -1 1.22461e-16 0
    outer loop
      vertex -3 6.76777 41.7678
      vertex -3 10.5 49.5301
      vertex -3 7.5 40
    endloop
  endfacet
  facet normal -1 1.22461e-16 0
    outer loop
      vertex -3 -3 49.5301
      vertex -3 2.5 10
      vertex -3 -3 -2
    endloop
  endfacet
  facet normal -1 1.22461e-16 0
    outer loop
      vertex -3 5 37.5
      vertex -3 10.5 0
      vertex -3 3.23223 38.2322
    endloop
  endfacet
  facet normal -1 1.22461e-16 0
    outer loop
      vertex -3 2.5 40
      vertex -3 3.23223 38.2322
      vertex -3 -3 49.5301
    endloop
  endfacet
  facet normal -1 1.22461e-16 0
    outer loop
      vertex -3 6.76777 38.2322
      vertex -3 10.5 0
      vertex -3 5 37.5
    endloop
  endfacet
  facet normal -1 1.22461e-16 0
    outer loop
      vertex -3 7.5 40
      vertex -3 10.5 0
      vertex -3 6.76777 38.2322
    endloop
  endfacet
  facet normal -1 1.22461e-16 0
    outer loop
      vertex -3 10.5 49.5301
      vertex -3 10.5 0
      vertex -3 7.5 40
    endloop
  endfacet
  facet normal -1 1.22461e-16 0
    outer loop
      vertex -3 5 42.5
      vertex -3 10.5 49.5301
      vertex -3 6.76777 41.7678
    endloop
  endfacet
  facet normal -1 1.22461e-16 0
    outer loop
      vertex -3 122.232 8.23223
      vertex -3 118.5 0
      vertex -3 121.5 10
    endloop
  endfacet
  facet normal -1 1.22461e-16 0
    outer loop
      vertex -3 10.5 49.5301
      vertex -3 5 42.5
      vertex -3 -3 49.5301
    endloop
  endfacet
  facet normal -1 1.22461e-16 0
    outer loop
      vertex -3 5 42.5
      vertex -3 3.23223 41.7678
      vertex -3 -3 49.5301
    endloop
  endfacet
  facet normal -1 1.22461e-16 0
    outer loop
      vertex -3 3.23223 41.7678
      vertex -3 2.5 40
      vertex -3 -3 49.5301
    endloop
  endfacet
  facet normal -1 1.22461e-16 0
    outer loop
      vertex -3 133 -2
      vertex -3 118.5 0
      vertex -3 122.232 8.23223
    endloop
  endfacet
  facet normal -1 1.22461e-16 0
    outer loop
      vertex -3 133 -2
      vertex -3 122.232 8.23223
      vertex -3 124 7.5
    endloop
  endfacet
  facet normal -1 1.22461e-16 0
    outer loop
      vertex -3 133 -2
      vertex -3 124 7.5
      vertex -3 125.768 8.23223
    endloop
  endfacet
  facet normal -1 1.22461e-16 0
    outer loop
      vertex -3 133 -2
      vertex -3 125.768 8.23223
      vertex -3 126.5 10
    endloop
  endfacet
  facet normal -1 1.22461e-16 0
    outer loop
      vertex -3 133 -2
      vertex -3 126.5 10
      vertex -3 133 49.5301
    endloop
  endfacet
  facet normal -1 1.22461e-16 0
    outer loop
      vertex -3 124 12.5
      vertex -3 133 49.5301
      vertex -3 125.768 11.7678
    endloop
  endfacet
  facet normal -1 1.22461e-16 0
    outer loop
      vertex -3 122.232 11.7678
      vertex -3 133 49.5301
      vertex -3 124 12.5
    endloop
  endfacet
  facet normal -1 1.22461e-16 0
    outer loop
      vertex -3 125.768 11.7678
      vertex -3 133 49.5301
      vertex -3 126.5 10
    endloop
  endfacet
  facet normal -1 1.22461e-16 0
    outer loop
      vertex -3 125.768 41.7678
      vertex -3 133 49.5301
      vertex -3 126.5 40
    endloop
  endfacet
  facet normal -1 1.22461e-16 0
    outer loop
      vertex -3 122.232 11.7678
      vertex -3 121.5 10
      vertex -3 133 49.5301
    endloop
  endfacet
  facet normal -1 1.22461e-16 0
    outer loop
      vertex -3 118.5 0
      vertex -3 122.232 38.2322
      vertex -3 124 37.5
    endloop
  endfacet
  facet normal -1 1.22461e-16 0
    outer loop
      vertex -3 118.5 0
      vertex -3 124 37.5
      vertex -3 125.768 38.2322
    endloop
  endfacet
  facet normal -1 1.22461e-16 0
    outer loop
      vertex -3 118.5 0
      vertex -3 125.768 38.2322
      vertex -3 133 49.5301
    endloop
  endfacet
  facet normal -1 1.22461e-16 0
    outer loop
      vertex -3 125.768 38.2322
      vertex -3 126.5 40
      vertex -3 133 49.5301
    endloop
  endfacet
  facet normal -1 1.22461e-16 0
    outer loop
      vertex -3 124 42.5
      vertex -3 133 49.5301
      vertex -3 125.768 41.7678
    endloop
  endfacet
  facet normal -1 1.22461e-16 0
    outer loop
      vertex -3 122.232 41.7678
      vertex -3 118.5 49.5301
      vertex -3 124 42.5
    endloop
  endfacet
  facet normal -1 1.22461e-16 0
    outer loop
      vertex -3 121.5 40
      vertex -3 118.5 49.5301
      vertex -3 122.232 41.7678
    endloop
  endfacet
  facet normal -1 1.22461e-16 0
    outer loop
      vertex -3 118.5 0
      vertex -3 118.5 49.5301
      vertex -3 121.5 40
    endloop
  endfacet
  facet normal -1 1.22461e-16 0
    outer loop
      vertex -3 118.5 0
      vertex -3 121.5 40
      vertex -3 122.232 38.2322
    endloop
  endfacet
  facet normal -1 1.22461e-16 0
    outer loop
      vertex -3 5 12.5
      vertex -3 -3 49.5301
      vertex -3 6.76777 11.7678
    endloop
  endfacet
  facet normal 0.15012 -0.988668 0
    outer loop
      vertex 43.8343 -3 0
      vertex 43.8343 -3 -2
      vertex 96.712 5.029 -2
    endloop
  endfacet
  facet normal 0.15012 -0.988668 0
    outer loop
      vertex 96.712 5.029 0
      vertex 43.8343 -3 0
      vertex 96.712 5.029 -2
    endloop
  endfacet
  facet normal -0.207601 2.17207e-16 0.978214
    outer loop
      vertex -3 10.5 49.5301
      vertex -3 -3 49.5301
      vertex -1.045 -3 49.945
    endloop
  endfacet
  facet normal -0.207601 2.17207e-16 0.978214
    outer loop
      vertex -1.045 10.5 49.945
      vertex -3 10.5 49.5301
      vertex -1.045 -3 49.945
    endloop
  endfacet
  facet normal 0 2.22045e-16 1
    outer loop
      vertex 0 -0.2 49.945
      vertex -1.045 -3 49.945
      vertex 1.045 -3 49.945
    endloop
  endfacet
  facet normal 0 2.22045e-16 1
    outer loop
      vertex 0 -0.2 49.945
      vertex 0 10.5 49.945
      vertex -1.045 10.5 49.945
    endloop
  endfacet
  facet normal 0 2.22045e-16 1
    outer loop
      vertex -1.045 10.5 49.945
      vertex -1.045 -3 49.945
      vertex 0 -0.2 49.945
    endloop
  endfacet
  facet normal 0 2.22045e-16 1
    outer loop
      vertex 1.045 -0.2 49.945
      vertex 0 -0.2 49.945
      vertex 1.045 -3 49.945
    endloop
  endfacet
  facet normal 0.207601 2.17207e-16 0.978214
    outer loop
      vertex 1.045 -0.2 49.945
      vertex 1.045 -3 49.945
      vertex 3.09 -3 49.511
    endloop
  endfacet
  facet normal 0.207601 2.17207e-16 0.978214
    outer loop
      vertex 3.09 -0.2 49.511
      vertex 1.045 -0.2 49.945
      vertex 3.09 -3 49.511
    endloop
  endfacet
  facet normal 0.406981 2.02824e-16 0.913436
    outer loop
      vertex 3.09 -0.2 49.511
      vertex 3.09 -3 49.511
      vertex 5 -3 48.66
    endloop
  endfacet
  facet normal 0.406981 2.02824e-16 0.913436
    outer loop
      vertex 5 -0.2 48.66
      vertex 3.09 -0.2 49.511
      vertex 5 -3 48.66
    endloop
  endfacet
  facet normal 0.587916 1.79617e-16 0.808922
    outer loop
      vertex 5 -0.2 48.66
      vertex 5 -3 48.66
      vertex 6.691 -3 47.431
    endloop
  endfacet
  facet normal 0.587916 1.79617e-16 0.808922
    outer loop
      vertex 6.691 -0.2 47.431
      vertex 5 -0.2 48.66
      vertex 6.691 -3 47.431
    endloop
  endfacet
  facet normal 0.742985 1.48616e-16 0.669308
    outer loop
      vertex 6.691 -0.2 47.431
      vertex 6.691 -3 47.431
      vertex 8.09 -3 45.878
    endloop
  endfacet
  facet normal 0.742985 1.48616e-16 0.669308
    outer loop
      vertex 8.09 -0.2 45.878
      vertex 6.691 -0.2 47.431
      vertex 8.09 -3 45.878
    endloop
  endfacet
  facet normal 0.754374 1.4576e-16 0.656445
    outer loop
      vertex 8.09 -0.2 45.878
      vertex 8.09 -3 45.878
      vertex 35.225 -3 14.695
    endloop
  endfacet
  facet normal 0.754374 1.4576e-16 0.656445
    outer loop
      vertex 35.225 -0.2 14.695
      vertex 8.09 -0.2 45.878
      vertex 35.225 -3 14.695
    endloop
  endfacet
  facet normal 0.865998 1.11033e-16 0.500048
    outer loop
      vertex 35.225 -0.2 14.695
      vertex 35.225 -3 14.695
      vertex 37.839 -3 10.168
    endloop
  endfacet
  facet normal 0.865998 1.11033e-16 0.500048
    outer loop
      vertex 37.839 -0.2 10.168
      vertex 35.225 -0.2 14.695
      vertex 37.839 -3 10.168
    endloop
  endfacet
  facet normal 0.951048 6.86213e-17 0.309043
    outer loop
      vertex 37.839 -0.2 10.168
      vertex 37.839 -3 10.168
      vertex 39.454 -3 5.198
    endloop
  endfacet
  facet normal 0.951048 6.86213e-17 0.309043
    outer loop
      vertex 39.454 -0.2 5.198
      vertex 37.839 -0.2 10.168
      vertex 39.454 -3 5.198
    endloop
  endfacet
  facet normal 0.994528 2.3196e-17 0.104466
    outer loop
      vertex 39.454 -0.2 5.198
      vertex 39.454 -3 5.198
      vertex 40 -3 1.33227e-15
    endloop
  endfacet
  facet normal 0.994528 2.3196e-17 0.104466
    outer loop
      vertex 40 -0.2 7.10543e-16
      vertex 39.454 -0.2 5.198
      vertex 40 -3 1.33227e-15
    endloop
  endfacet
  facet normal 0.994528 -2.3196e-17 -0.104466
    outer loop
      vertex 40 -3 1.33227e-15
      vertex 40 -3 0
      vertex 40 -0.2 0
    endloop
  endfacet
  facet normal 0.994528 -2.3196e-17 -0.104466
    outer loop
      vertex 40 -0.2 7.10543e-16
      vertex 40 -3 1.33227e-15
      vertex 40 -0.2 0
    endloop
  endfacet
  facet normal 0 0 1
    outer loop
      vertex 18.496 14.641 0
      vertex 16.787 14.981 0
      vertex 0 10.5 0
    endloop
  endfacet
  facet normal 0 0 1
    outer loop
      vertex 4.42705 0.14683 0
      vertex 0 -0.2 0
      vertex 40 -0.2 0
    endloop
  endfacet
  facet normal 0 0 1
    outer loop
      vertex 96.712 5.029 0
      vertex 0 10.5 0
      vertex 40 -0.2 0
    endloop
  endfacet
  facet normal 0 0 1
    outer loop
      vertex 40 -3 0
      vertex 43.8343 -3 0
      vertex 40 -0.2 0
    endloop
  endfacet
  facet normal 0 0 1
    outer loop
      vertex 43.8343 -3 0
      vertex 96.712 5.029 0
      vertex 40 -0.2 0
    endloop
  endfacet
  facet normal 0 0 1
    outer loop
      vertex 96.712 5.029 0
      vertex 98.502 5.708 0
      vertex 0 10.5 0
    endloop
  endfacet
  facet normal 0 0 1
    outer loop
      vertex 93.23 9 0
      vertex 93.8029 10.7634 0
      vertex 0 10.5 0
    endloop
  endfacet
  facet normal 0 0 1
    outer loop
      vertex 93.8029 10.7634 0
      vertex 95.3029 11.8532 0
      vertex 0 10.5 0
    endloop
  endfacet
  facet normal 0 0 1
    outer loop
      vertex 0 118.5 0
      vertex -3 118.5 0
      vertex 0 10.5 0
    endloop
  endfacet
  facet normal 0 0 1
    outer loop
      vertex 95.3029 11.8532 0
      vertex 98.502 12.292 0
      vertex 0 10.5 0
    endloop
  endfacet
  facet normal 0 0 1
    outer loop
      vertex 16.787 109.619 0
      vertex 11.4866 130.2 0
      vertex 15.164 108.536 0
    endloop
  endfacet
  facet normal 0 0 1
    outer loop
      vertex 98.502 12.292 0
      vertex 96.712 12.971 0
      vertex 0 10.5 0
    endloop
  endfacet
  facet normal 0 0 1
    outer loop
      vertex 14.081 106.913 0
      vertex 11.4866 130.2 0
      vertex 13.7 105 0
    endloop
  endfacet
  facet normal 0 0 1
    outer loop
      vertex 96.712 12.971 0
      vertex 18.496 14.641 0
      vertex 0 10.5 0
    endloop
  endfacet
  facet normal 0 0 1
    outer loop
      vertex 16.787 14.981 0
      vertex 15.164 16.064 0
      vertex 0 10.5 0
    endloop
  endfacet
  facet normal 0 0 1
    outer loop
      vertex 15.164 16.064 0
      vertex 14.081 17.687 0
      vertex 0 10.5 0
    endloop
  endfacet
  facet normal 0 0 1
    outer loop
      vertex 14.081 17.687 0
      vertex 13.7 19.6 0
      vertex 0 10.5 0
    endloop
  endfacet
  facet normal 0 0 1
    outer loop
      vertex 13.7 19.6 0
      vertex 13.7 105 0
      vertex 0 10.5 0
    endloop
  endfacet
  facet normal 0 0 1
    outer loop
      vertex 13.7 105 0
      vertex 11.4866 130.2 0
      vertex 0 10.5 0
    endloop
  endfacet
  facet normal 0 0 1
    outer loop
      vertex 15.164 108.536 0
      vertex 11.4866 130.2 0
      vertex 14.081 106.913 0
    endloop
  endfacet
  facet normal 0 0 1
    outer loop
      vertex 17.994 109.859 0
      vertex 40 122.566 0
      vertex 16.787 109.619 0
    endloop
  endfacet
  facet normal 0 0 1
    outer loop
      vertex 100.082 98.26 0
      vertex 101.982 98.029 0
      vertex 17.994 109.859 0
    endloop
  endfacet
  facet normal 0 0 1
    outer loop
      vertex 101.982 98.029 0
      vertex 103.772 98.708 0
      vertex 17.994 109.859 0
    endloop
  endfacet
  facet normal 0 0 1
    outer loop
      vertex 99.0729 103.763 0
      vertex 100.573 104.853 0
      vertex 17.994 109.859 0
    endloop
  endfacet
  facet normal 0 0 1
    outer loop
      vertex 100.573 104.853 0
      vertex 103.772 105.292 0
      vertex 17.994 109.859 0
    endloop
  endfacet
  facet normal 0 0 1
    outer loop
      vertex 103.772 105.292 0
      vertex 101.982 105.971 0
      vertex 17.994 109.859 0
    endloop
  endfacet
  facet normal 0 0 1
    outer loop
      vertex 101.982 105.971 0
      vertex 40 122.566 0
      vertex 17.994 109.859 0
    endloop
  endfacet
  facet normal 0 0 1
    outer loop
      vertex 40 122.566 0
      vertex 11.4866 130.2 0
      vertex 16.787 109.619 0
    endloop
  endfacet
  facet normal 0 0 1
    outer loop
      vertex 0.5 102 0
      vertex 0 118.5 0
      vertex 0 10.5 0
    endloop
  endfacet
  facet normal 0 0 1
    outer loop
      vertex 11.4866 130.2 0
      vertex 0 130.2 0
      vertex 0 118.5 0
    endloop
  endfacet
  facet normal 0 0 1
    outer loop
      vertex 4.42705 5.85317 0
      vertex 5.92705 4.76336 0
      vertex 40 -0.2 0
    endloop
  endfacet
  facet normal 0 0 1
    outer loop
      vertex 2.57295 0.14683 0
      vertex 1.07295 1.23664 0
      vertex 0 -0.2 0
    endloop
  endfacet
  facet normal 0 0 1
    outer loop
      vertex 0 10.5 0
      vertex 0 -0.2 0
      vertex 0.5 3 0
    endloop
  endfacet
  facet normal 0 0 1
    outer loop
      vertex 6.5 3 0
      vertex 5.92705 1.23664 0
      vertex 40 -0.2 0
    endloop
  endfacet
  facet normal 0 0 1
    outer loop
      vertex 0 10.5 0
      vertex 0.5 3 0
      vertex 1.07295 4.76336 0
    endloop
  endfacet
  facet normal 0 0 1
    outer loop
      vertex 5.92705 4.76336 0
      vertex 6.5 3 0
      vertex 40 -0.2 0
    endloop
  endfacet
  facet normal 0 0 1
    outer loop
      vertex 0 10.5 0
      vertex 1.07295 4.76336 0
      vertex 2.57295 5.85317 0
    endloop
  endfacet
  facet normal 0 0 1
    outer loop
      vertex 0 10.5 0
      vertex 4.42705 5.85317 0
      vertex 40 -0.2 0
    endloop
  endfacet
  facet normal 0 0 1
    outer loop
      vertex 0 10.5 0
      vertex 2.57295 5.85317 0
      vertex 4.42705 5.85317 0
    endloop
  endfacet
  facet normal 0 0 1
    outer loop
      vertex 5.92705 1.23664 0
      vertex 4.42705 0.14683 0
      vertex 40 -0.2 0
    endloop
  endfacet
  facet normal 0 0 1
    outer loop
      vertex 2.57295 0.14683 0
      vertex 0 -0.2 0
      vertex 4.42705 0.14683 0
    endloop
  endfacet
  facet normal 0 0 1
    outer loop
      vertex 1.07295 103.763 0
      vertex 2.57295 104.853 0
      vertex 11.4866 130.2 0
    endloop
  endfacet
  facet normal 0 0 1
    outer loop
      vertex 0.5 3 0
      vertex 0 -0.2 0
      vertex 1.07295 1.23664 0
    endloop
  endfacet
  facet normal 0 0 1
    outer loop
      vertex 1.07295 100.237 0
      vertex 0.5 102 0
      vertex 0 10.5 0
    endloop
  endfacet
  facet normal 0 0 1
    outer loop
      vertex 1.07295 103.763 0
      vertex 0 118.5 0
      vertex 0.5 102 0
    endloop
  endfacet
  facet normal 0 0 1
    outer loop
      vertex 5.92705 100.237 0
      vertex 4.42705 99.1468 0
      vertex 0 10.5 0
    endloop
  endfacet
  facet normal 0 0 1
    outer loop
      vertex 11.4866 130.2 0
      vertex 0 118.5 0
      vertex 1.07295 103.763 0
    endloop
  endfacet
  facet normal 0 0 1
    outer loop
      vertex 2.57295 99.1468 0
      vertex 1.07295 100.237 0
      vertex 0 10.5 0
    endloop
  endfacet
  facet normal 0 0 1
    outer loop
      vertex 11.4866 130.2 0
      vertex 2.57295 104.853 0
      vertex 4.42705 104.853 0
    endloop
  endfacet
  facet normal 0 0 1
    outer loop
      vertex 4.42705 99.1468 0
      vertex 2.57295 99.1468 0
      vertex 0 10.5 0
    endloop
  endfacet
  facet normal 0 0 1
    outer loop
      vertex 11.4866 130.2 0
      vertex 4.42705 104.853 0
      vertex 5.92705 103.763 0
    endloop
  endfacet
  facet normal 0 0 1
    outer loop
      vertex 11.4866 130.2 0
      vertex 6.5 102 0
      vertex 0 10.5 0
    endloop
  endfacet
  facet normal 0 0 1
    outer loop
      vertex 11.4866 130.2 0
      vertex 5.92705 103.763 0
      vertex 6.5 102 0
    endloop
  endfacet
  facet normal 0 0 1
    outer loop
      vertex 6.5 102 0
      vertex 5.92705 100.237 0
      vertex 0 10.5 0
    endloop
  endfacet
  facet normal 0 0 1
    outer loop
      vertex 95.3029 6.14683 0
      vertex 93.8029 7.23664 0
      vertex 0 10.5 0
    endloop
  endfacet
  facet normal 0 0 1
    outer loop
      vertex 99.772 7.141 0
      vertex 100.23 9 0
      vertex 99.23 9 0
    endloop
  endfacet
  facet normal 0 0 1
    outer loop
      vertex 98.6571 10.7634 0
      vertex 99.23 9 0
      vertex 100.23 9 0
    endloop
  endfacet
  facet normal 0 0 1
    outer loop
      vertex 97.1571 11.8532 0
      vertex 98.502 12.292 0
      vertex 95.3029 11.8532 0
    endloop
  endfacet
  facet normal 0 0 1
    outer loop
      vertex 99.0729 100.237 0
      vertex 98.5 102 0
      vertex 17.994 109.859 0
    endloop
  endfacet
  facet normal 0 0 1
    outer loop
      vertex 99.772 10.859 0
      vertex 98.502 12.292 0
      vertex 97.1571 11.8532 0
    endloop
  endfacet
  facet normal 0 0 1
    outer loop
      vertex 99.23 9 0
      vertex 98.6571 7.23664 0
      vertex 99.772 7.141 0
    endloop
  endfacet
  facet normal 0 0 1
    outer loop
      vertex 100.23 9 0
      vertex 99.772 10.859 0
      vertex 98.6571 10.7634 0
    endloop
  endfacet
  facet normal 0 0 1
    outer loop
      vertex 97.1571 11.8532 0
      vertex 98.6571 10.7634 0
      vertex 99.772 10.859 0
    endloop
  endfacet
  facet normal 0 0 1
    outer loop
      vertex 98.6571 7.23664 0
      vertex 97.1571 6.14683 0
      vertex 99.772 7.141 0
    endloop
  endfacet
  facet normal 0 0 1
    outer loop
      vertex 98.502 5.708 0
      vertex 99.772 7.141 0
      vertex 97.1571 6.14683 0
    endloop
  endfacet
  facet normal 0 0 1
    outer loop
      vertex 98.502 5.708 0
      vertex 95.3029 6.14683 0
      vertex 0 10.5 0
    endloop
  endfacet
  facet normal 0 0 1
    outer loop
      vertex 98.502 5.708 0
      vertex 97.1571 6.14683 0
      vertex 95.3029 6.14683 0
    endloop
  endfacet
  facet normal 0 0 1
    outer loop
      vertex 105.042 100.141 0
      vertex 105.5 102 0
      vertex 104.5 102 0
    endloop
  endfacet
  facet normal 0 0 1
    outer loop
      vertex 103.927 103.763 0
      vertex 104.5 102 0
      vertex 105.5 102 0
    endloop
  endfacet
  facet normal 0 0 1
    outer loop
      vertex 102.427 104.853 0
      vertex 103.772 105.292 0
      vertex 100.573 104.853 0
    endloop
  endfacet
  facet normal 0 0 1
    outer loop
      vertex 105.042 103.859 0
      vertex 103.772 105.292 0
      vertex 102.427 104.853 0
    endloop
  endfacet
  facet normal 0 0 1
    outer loop
      vertex 104.5 102 0
      vertex 103.927 100.237 0
      vertex 105.042 100.141 0
    endloop
  endfacet
  facet normal 0 0 1
    outer loop
      vertex 105.5 102 0
      vertex 105.042 103.859 0
      vertex 103.927 103.763 0
    endloop
  endfacet
  facet normal 0 0 1
    outer loop
      vertex 102.427 104.853 0
      vertex 103.927 103.763 0
      vertex 105.042 103.859 0
    endloop
  endfacet
  facet normal 0 0 1
    outer loop
      vertex 100.573 99.1468 0
      vertex 99.0729 100.237 0
      vertex 17.994 109.859 0
    endloop
  endfacet
  facet normal 0 0 1
    outer loop
      vertex 98.5 102 0
      vertex 99.0729 103.763 0
      vertex 17.994 109.859 0
    endloop
  endfacet
  facet normal 0 0 1
    outer loop
      vertex 103.772 98.708 0
      vertex 105.042 100.141 0
      vertex 103.927 100.237 0
    endloop
  endfacet
  facet normal 0 0 1
    outer loop
      vertex 103.772 98.708 0
      vertex 103.927 100.237 0
      vertex 102.427 99.1468 0
    endloop
  endfacet
  facet normal 0 0 1
    outer loop
      vertex 103.772 98.708 0
      vertex 100.573 99.1468 0
      vertex 17.994 109.859 0
    endloop
  endfacet
  facet normal 0 0 1
    outer loop
      vertex 103.772 98.708 0
      vertex 102.427 99.1468 0
      vertex 100.573 99.1468 0
    endloop
  endfacet
  facet normal 0 0 1
    outer loop
      vertex -3 10.5 0
      vertex 0 10.5 0
      vertex -3 118.5 0
    endloop
  endfacet
  facet normal 0 0 1
    outer loop
      vertex 93.8029 7.23664 0
      vertex 93.23 9 0
      vertex 0 10.5 0
    endloop
  endfacet
  facet normal 0.35467 -0.934992 0
    outer loop
      vertex 96.712 5.029 0
      vertex 96.712 5.029 -2
      vertex 98.502 5.708 -2
    endloop
  endfacet
  facet normal 0.35467 -0.934992 0
    outer loop
      vertex 98.502 5.708 0
      vertex 96.712 5.029 0
      vertex 98.502 5.708 -2
    endloop
  endfacet
  facet normal 0.748388 -0.663261 0
    outer loop
      vertex 98.502 5.708 0
      vertex 98.502 5.708 -2
      vertex 99.772 7.141 -2
    endloop
  endfacet
  facet normal 0.748388 -0.663261 0
    outer loop
      vertex 99.772 7.141 0
      vertex 98.502 5.708 0
      vertex 99.772 7.141 -2
    endloop
  endfacet
  facet normal 0.970966 -0.239216 0
    outer loop
      vertex 99.772 7.141 0
      vertex 99.772 7.141 -2
      vertex 100.23 9 -2
    endloop
  endfacet
  facet normal 0.970966 -0.239216 0
    outer loop
      vertex 100.23 9 0
      vertex 99.772 7.141 0
      vertex 100.23 9 -2
    endloop
  endfacet
  facet normal 0.970966 0.239216 0
    outer loop
      vertex 100.23 9 -2
      vertex 99.772 10.859 -2
      vertex 99.772 10.859 0
    endloop
  endfacet
  facet normal 0.970966 0.239216 0
    outer loop
      vertex 100.23 9 0
      vertex 100.23 9 -2
      vertex 99.772 10.859 0
    endloop
  endfacet
  facet normal 0.748388 0.663261 0
    outer loop
      vertex 99.772 10.859 -2
      vertex 98.502 12.292 -2
      vertex 98.502 12.292 0
    endloop
  endfacet
  facet normal 0.748388 0.663261 0
    outer loop
      vertex 99.772 10.859 0
      vertex 99.772 10.859 -2
      vertex 98.502 12.292 0
    endloop
  endfacet
  facet normal 0.35467 0.934992 0
    outer loop
      vertex 96.712 12.971 -2
      vertex 96.712 12.971 0
      vertex 98.502 12.292 -2
    endloop
  endfacet
  facet normal 0.35467 0.934992 0
    outer loop
      vertex 98.502 12.292 -2
      vertex 96.712 12.971 0
      vertex 98.502 12.292 0
    endloop
  endfacet
  facet normal 0.0213463 0.999772 0
    outer loop
      vertex 18.496 14.641 -2
      vertex 18.496 14.641 0
      vertex 96.712 12.971 -2
    endloop
  endfacet
  facet normal 0.0213463 0.999772 0
    outer loop
      vertex 96.712 12.971 -2
      vertex 18.496 14.641 0
      vertex 96.712 12.971 0
    endloop
  endfacet
  facet normal 0.195123 0.980779 0
    outer loop
      vertex 16.787 14.981 -2
      vertex 16.787 14.981 0
      vertex 18.496 14.641 -2
    endloop
  endfacet
  facet normal 0.195123 0.980779 0
    outer loop
      vertex 18.496 14.641 -2
      vertex 16.787 14.981 0
      vertex 18.496 14.641 0
    endloop
  endfacet
  facet normal 0.555055 0.831814 0
    outer loop
      vertex 15.164 16.064 -2
      vertex 15.164 16.064 0
      vertex 16.787 14.981 -2
    endloop
  endfacet
  facet normal 0.555055 0.831814 0
    outer loop
      vertex 16.787 14.981 -2
      vertex 15.164 16.064 0
      vertex 16.787 14.981 0
    endloop
  endfacet
  facet normal 0.831814 0.555055 0
    outer loop
      vertex 15.164 16.064 -2
      vertex 14.081 17.687 -2
      vertex 14.081 17.687 0
    endloop
  endfacet
  facet normal 0.831814 0.555055 0
    outer loop
      vertex 15.164 16.064 0
      vertex 15.164 16.064 -2
      vertex 14.081 17.687 0
    endloop
  endfacet
  facet normal 0.980738 0.195327 0
    outer loop
      vertex 14.081 17.687 -2
      vertex 13.7 19.6 -2
      vertex 13.7 19.6 0
    endloop
  endfacet
  facet normal 0.980738 0.195327 0
    outer loop
      vertex 14.081 17.687 0
      vertex 14.081 17.687 -2
      vertex 13.7 19.6 0
    endloop
  endfacet
  facet normal 1 0 0
    outer loop
      vertex 13.7 19.6 0
      vertex 13.7 19.6 -2
      vertex 13.7 105 -2
    endloop
  endfacet
  facet normal 1 0 0
    outer loop
      vertex 13.7 105 0
      vertex 13.7 19.6 0
      vertex 13.7 105 -2
    endloop
  endfacet
  facet normal 0.980738 -0.195327 0
    outer loop
      vertex 13.7 105 0
      vertex 13.7 105 -2
      vertex 14.081 106.913 -2
    endloop
  endfacet
  facet normal 0.980738 -0.195327 0
    outer loop
      vertex 14.081 106.913 0
      vertex 13.7 105 0
      vertex 14.081 106.913 -2
    endloop
  endfacet
  facet normal 0.831814 -0.555055 0
    outer loop
      vertex 14.081 106.913 0
      vertex 14.081 106.913 -2
      vertex 15.164 108.536 -2
    endloop
  endfacet
  facet normal 0.831814 -0.555055 0
    outer loop
      vertex 15.164 108.536 0
      vertex 14.081 106.913 0
      vertex 15.164 108.536 -2
    endloop
  endfacet
  facet normal 0.555055 -0.831814 0
    outer loop
      vertex 15.164 108.536 0
      vertex 15.164 108.536 -2
      vertex 16.787 109.619 -2
    endloop
  endfacet
  facet normal 0.555055 -0.831814 0
    outer loop
      vertex 16.787 109.619 0
      vertex 15.164 108.536 0
      vertex 16.787 109.619 -2
    endloop
  endfacet
  facet normal 0.195022 -0.980799 0
    outer loop
      vertex 16.787 109.619 0
      vertex 16.787 109.619 -2
      vertex 17.994 109.859 -2
    endloop
  endfacet
  facet normal 0.195022 -0.980799 0
    outer loop
      vertex 17.994 109.859 0
      vertex 16.787 109.619 0
      vertex 17.994 109.859 -2
    endloop
  endfacet
  facet normal -0.13991 -0.990164 0
    outer loop
      vertex 17.994 109.859 0
      vertex 17.994 109.859 -2
      vertex 100.082 98.26 -2
    endloop
  endfacet
  facet normal -0.13991 -0.990164 0
    outer loop
      vertex 100.082 98.26 0
      vertex 17.994 109.859 0
      vertex 100.082 98.26 -2
    endloop
  endfacet
  facet normal -0.12069 -0.99269 0
    outer loop
      vertex 100.082 98.26 0
      vertex 100.082 98.26 -2
      vertex 101.982 98.029 -2
    endloop
  endfacet
  facet normal -0.12069 -0.99269 0
    outer loop
      vertex 101.982 98.029 0
      vertex 100.082 98.26 0
      vertex 101.982 98.029 -2
    endloop
  endfacet
  facet normal 0.35467 -0.934992 0
    outer loop
      vertex 101.982 98.029 0
      vertex 101.982 98.029 -2
      vertex 103.772 98.708 -2
    endloop
  endfacet
  facet normal 0.35467 -0.934992 0
    outer loop
      vertex 103.772 98.708 0
      vertex 101.982 98.029 0
      vertex 103.772 98.708 -2
    endloop
  endfacet
  facet normal 0.748388 -0.663261 0
    outer loop
      vertex 103.772 98.708 0
      vertex 103.772 98.708 -2
      vertex 105.042 100.141 -2
    endloop
  endfacet
  facet normal 0.748388 -0.663261 0
    outer loop
      vertex 105.042 100.141 0
      vertex 103.772 98.708 0
      vertex 105.042 100.141 -2
    endloop
  endfacet
  facet normal 0.970966 -0.239216 0
    outer loop
      vertex 105.042 100.141 0
      vertex 105.042 100.141 -2
      vertex 105.5 102 -2
    endloop
  endfacet
  facet normal 0.970966 -0.239216 0
    outer loop
      vertex 105.5 102 0
      vertex 105.042 100.141 0
      vertex 105.5 102 -2
    endloop
  endfacet
  facet normal 0.970966 0.239216 0
    outer loop
      vertex 105.5 102 -2
      vertex 105.042 103.859 -2
      vertex 105.042 103.859 0
    endloop
  endfacet
  facet normal 0.970966 0.239216 0
    outer loop
      vertex 105.5 102 0
      vertex 105.5 102 -2
      vertex 105.042 103.859 0
    endloop
  endfacet
  facet normal 0.748388 0.663261 0
    outer loop
      vertex 105.042 103.859 -2
      vertex 103.772 105.292 -2
      vertex 103.772 105.292 0
    endloop
  endfacet
  facet normal 0.748388 0.663261 0
    outer loop
      vertex 105.042 103.859 0
      vertex 105.042 103.859 -2
      vertex 103.772 105.292 0
    endloop
  endfacet
  facet normal 0.35467 0.934992 0
    outer loop
      vertex 101.982 105.971 -2
      vertex 101.982 105.971 0
      vertex 103.772 105.292 -2
    endloop
  endfacet
  facet normal 0.35467 0.934992 0
    outer loop
      vertex 103.772 105.292 -2
      vertex 101.982 105.971 0
      vertex 103.772 105.292 0
    endloop
  endfacet
  facet normal 0.258628 0.965977 0
    outer loop
      vertex 39.7899 122.622 -2
      vertex 40 122.566 -7.62524e-16
      vertex 101.982 105.971 -2
    endloop
  endfacet
  facet normal 0.258628 0.965977 0
    outer loop
      vertex 101.982 105.971 -2
      vertex 40 122.566 -7.62524e-16
      vertex 40 122.566 0
    endloop
  endfacet
  facet normal 0.258628 0.965977 0
    outer loop
      vertex 101.982 105.971 -2
      vertex 40 122.566 0
      vertex 101.982 105.971 0
    endloop
  endfacet
  facet normal 0.994528 2.3196e-17 -0.104466
    outer loop
      vertex 40 133 1.55431e-15
      vertex 40 130.2 9.32587e-16
      vertex 40 130.2 0
    endloop
  endfacet
  facet normal 0.994528 2.3196e-17 -0.104466
    outer loop
      vertex 39.7899 122.622 -2
      vertex 40 133 1.55431e-15
      vertex 40 130.2 0
    endloop
  endfacet
  facet normal 0.994528 2.3196e-17 -0.104466
    outer loop
      vertex 40 126 0
      vertex 40 122.566 -7.62524e-16
      vertex 40 130.2 0
    endloop
  endfacet
  facet normal 0.994528 2.3196e-17 -0.104466
    outer loop
      vertex 40 122.566 -7.62524e-16
      vertex 39.7899 122.622 -2
      vertex 40 130.2 0
    endloop
  endfacet
  facet normal 0.994528 2.3196e-17 -0.104466
    outer loop
      vertex 39.7899 122.622 -2
      vertex 39.7899 133 -2
      vertex 40 133 1.55431e-15
    endloop
  endfacet
  facet normal 0 1 0
    outer loop
      vertex -1.045 133 49.945
      vertex 1.045 133 49.945
      vertex -3 133 49.5301
    endloop
  endfacet
  facet normal 0 1 0
    outer loop
      vertex -3 133 49.5301
      vertex 1.045 133 49.945
      vertex 3.09 133 49.511
    endloop
  endfacet
  facet normal 0 1 0
    outer loop
      vertex -3 133 49.5301
      vertex 3.09 133 49.511
      vertex 5 133 48.66
    endloop
  endfacet
  facet normal 0 1 0
    outer loop
      vertex -3 133 49.5301
      vertex 5 133 48.66
      vertex 6.691 133 47.431
    endloop
  endfacet
  facet normal 0 1 0
    outer loop
      vertex -3 133 49.5301
      vertex 6.691 133 47.431
      vertex 8.09 133 45.878
    endloop
  endfacet
  facet normal 0 1 0
    outer loop
      vertex -3 133 49.5301
      vertex 8.09 133 45.878
      vertex 35.225 133 14.695
    endloop
  endfacet
  facet normal 0 1 0
    outer loop
      vertex -3 133 49.5301
      vertex 35.225 133 14.695
      vertex 37.839 133 10.168
    endloop
  endfacet
  facet normal 0 1 0
    outer loop
      vertex -3 133 49.5301
      vertex 37.839 133 10.168
      vertex 39.454 133 5.198
    endloop
  endfacet
  facet normal 0 1 0
    outer loop
      vertex -3 133 49.5301
      vertex 39.454 133 5.198
      vertex 40 133 1.55431e-15
    endloop
  endfacet
  facet normal 0 1 0
    outer loop
      vertex -3 133 49.5301
      vertex 40 133 1.55431e-15
      vertex 39.7899 133 -2
    endloop
  endfacet
  facet normal 0 1 0
    outer loop
      vertex -3 133 49.5301
      vertex 39.7899 133 -2
      vertex -3 133 -2
    endloop
  endfacet
  facet normal 0.866025 -0.5 0
    outer loop
      vertex 2.7 4.38564 -2
      vertex 2.7 4.38564 2
      vertex 1.9 3 2
    endloop
  endfacet
  facet normal 0.866025 -0.5 0
    outer loop
      vertex 1.9 3 -2
      vertex 2.7 4.38564 -2
      vertex 1.9 3 2
    endloop
  endfacet
  facet normal 0.866025 0.5 0
    outer loop
      vertex 1.9 3 2
      vertex 2.7 1.61436 2
      vertex 2.7 1.61436 -2
    endloop
  endfacet
  facet normal 0.866025 0.5 0
    outer loop
      vertex 1.9 3 -2
      vertex 1.9 3 2
      vertex 2.7 1.61436 -2
    endloop
  endfacet
  facet normal 0 -1 0
    outer loop
      vertex 4.3 4.38564 -2
      vertex 4.3 4.38564 2
      vertex 2.7 4.38564 2
    endloop
  endfacet
  facet normal 0 -1 0
    outer loop
      vertex 2.7 4.38564 -2
      vertex 4.3 4.38564 -2
      vertex 2.7 4.38564 2
    endloop
  endfacet
  facet normal -0.866025 -0.5 0
    outer loop
      vertex 5.1 3 2
      vertex 4.3 4.38564 2
      vertex 5.1 3 -2
    endloop
  endfacet
  facet normal -0.866025 -0.5 0
    outer loop
      vertex 5.1 3 -2
      vertex 4.3 4.38564 2
      vertex 4.3 4.38564 -2
    endloop
  endfacet
  facet normal -0.866025 0.5 0
    outer loop
      vertex 5.1 3 2
      vertex 5.1 3 -2
      vertex 4.3 1.61436 2
    endloop
  endfacet
  facet normal -0.866025 0.5 0
    outer loop
      vertex 4.3 1.61436 2
      vertex 5.1 3 -2
      vertex 4.3 1.61436 -2
    endloop
  endfacet
  facet normal 0 1 0
    outer loop
      vertex 4.3 1.61436 2
      vertex 4.3 1.61436 -2
      vertex 2.7 1.61436 2
    endloop
  endfacet
  facet normal 0 1 0
    outer loop
      vertex 2.7 1.61436 2
      vertex 4.3 1.61436 -2
      vertex 2.7 1.61436 -2
    endloop
  endfacet
  facet normal 0.866025 0.5 0
    outer loop
      vertex 1.9 102 2
      vertex 2.7 100.614 2
      vertex 2.7 100.614 -2
    endloop
  endfacet
  facet normal 0.866025 0.5 0
    outer loop
      vertex 1.9 102 -2
      vertex 1.9 102 2
      vertex 2.7 100.614 -2
    endloop
  endfacet
  facet normal 0.866025 -0.5 0
    outer loop
      vertex 2.7 103.386 -2
      vertex 2.7 103.386 2
      vertex 1.9 102 2
    endloop
  endfacet
  facet normal 0.866025 -0.5 0
    outer loop
      vertex 1.9 102 -2
      vertex 2.7 103.386 -2
      vertex 1.9 102 2
    endloop
  endfacet
  facet normal 0 -1 0
    outer loop
      vertex 4.3 103.386 -2
      vertex 4.3 103.386 2
      vertex 2.7 103.386 2
    endloop
  endfacet
  facet normal 0 -1 0
    outer loop
      vertex 2.7 103.386 -2
      vertex 4.3 103.386 -2
      vertex 2.7 103.386 2
    endloop
  endfacet
  facet normal -0.866025 -0.5 0
    outer loop
      vertex 5.1 102 2
      vertex 4.3 103.386 2
      vertex 5.1 102 -2
    endloop
  endfacet
  facet normal -0.866025 -0.5 0
    outer loop
      vertex 5.1 102 -2
      vertex 4.3 103.386 2
      vertex 4.3 103.386 -2
    endloop
  endfacet
  facet normal -0.866025 0.5 0
    outer loop
      vertex 5.1 102 2
      vertex 5.1 102 -2
      vertex 4.3 100.614 2
    endloop
  endfacet
  facet normal -0.866025 0.5 0
    outer loop
      vertex 4.3 100.614 2
      vertex 5.1 102 -2
      vertex 4.3 100.614 -2
    endloop
  endfacet
  facet normal 0 1 0
    outer loop
      vertex 4.3 100.614 2
      vertex 4.3 100.614 -2
      vertex 2.7 100.614 2
    endloop
  endfacet
  facet normal 0 1 0
    outer loop
      vertex 2.7 100.614 2
      vertex 4.3 100.614 -2
      vertex 2.7 100.614 -2
    endloop
  endfacet
  facet normal 0.866025 0.5 0
    outer loop
      vertex 94.63 9 2
      vertex 95.43 7.61436 2
      vertex 95.43 7.61436 -2
    endloop
  endfacet
  facet normal 0.866025 0.5 0
    outer loop
      vertex 94.63 9 -2
      vertex 94.63 9 2
      vertex 95.43 7.61436 -2
    endloop
  endfacet
  facet normal 0.866025 -0.5 0
    outer loop
      vertex 95.43 10.3856 -2
      vertex 95.43 10.3856 2
      vertex 94.63 9 2
    endloop
  endfacet
  facet normal 0.866025 -0.5 0
    outer loop
      vertex 94.63 9 -2
      vertex 95.43 10.3856 -2
      vertex 94.63 9 2
    endloop
  endfacet
  facet normal 0 -1 0
    outer loop
      vertex 97.03 10.3856 -2
      vertex 97.03 10.3856 2
      vertex 95.43 10.3856 2
    endloop
  endfacet
  facet normal 0 -1 0
    outer loop
      vertex 95.43 10.3856 -2
      vertex 97.03 10.3856 -2
      vertex 95.43 10.3856 2
    endloop
  endfacet
  facet normal -0.866025 -0.5 0
    outer loop
      vertex 97.83 9 2
      vertex 97.03 10.3856 2
      vertex 97.83 9 -2
    endloop
  endfacet
  facet normal -0.866025 -0.5 0
    outer loop
      vertex 97.83 9 -2
      vertex 97.03 10.3856 2
      vertex 97.03 10.3856 -2
    endloop
  endfacet
  facet normal -0.866025 0.5 0
    outer loop
      vertex 97.83 9 2
      vertex 97.83 9 -2
      vertex 97.03 7.61436 2
    endloop
  endfacet
  facet normal -0.866025 0.5 0
    outer loop
      vertex 97.03 7.61436 2
      vertex 97.83 9 -2
      vertex 97.03 7.61436 -2
    endloop
  endfacet
  facet normal 0 1 0
    outer loop
      vertex 97.03 7.61436 2
      vertex 97.03 7.61436 -2
      vertex 95.43 7.61436 2
    endloop
  endfacet
  facet normal 0 1 0
    outer loop
      vertex 95.43 7.61436 2
      vertex 97.03 7.61436 -2
      vertex 95.43 7.61436 -2
    endloop
  endfacet
  facet normal 0.866025 0.5 0
    outer loop
      vertex 99.9 102 2
      vertex 100.7 100.614 2
      vertex 100.7 100.614 -2
    endloop
  endfacet
  facet normal 0.866025 0.5 0
    outer loop
      vertex 99.9 102 -2
      vertex 99.9 102 2
      vertex 100.7 100.614 -2
    endloop
  endfacet
  facet normal 0.866025 -0.5 0
    outer loop
      vertex 100.7 103.386 -2
      vertex 100.7 103.386 2
      vertex 99.9 102 2
    endloop
  endfacet
  facet normal 0.866025 -0.5 0
    outer loop
      vertex 99.9 102 -2
      vertex 100.7 103.386 -2
      vertex 99.9 102 2
    endloop
  endfacet
  facet normal 0 -1 0
    outer loop
      vertex 102.3 103.386 -2
      vertex 102.3 103.386 2
      vertex 100.7 103.386 2
    endloop
  endfacet
  facet normal 0 -1 0
    outer loop
      vertex 100.7 103.386 -2
      vertex 102.3 103.386 -2
      vertex 100.7 103.386 2
    endloop
  endfacet
  facet normal -0.866025 -0.5 0
    outer loop
      vertex 103.1 102 2
      vertex 102.3 103.386 2
      vertex 103.1 102 -2
    endloop
  endfacet
  facet normal -0.866025 -0.5 0
    outer loop
      vertex 103.1 102 -2
      vertex 102.3 103.386 2
      vertex 102.3 103.386 -2
    endloop
  endfacet
  facet normal -0.866025 0.5 0
    outer loop
      vertex 103.1 102 2
      vertex 103.1 102 -2
      vertex 102.3 100.614 2
    endloop
  endfacet
  facet normal -0.866025 0.5 0
    outer loop
      vertex 102.3 100.614 2
      vertex 103.1 102 -2
      vertex 102.3 100.614 -2
    endloop
  endfacet
  facet normal 0 1 0
    outer loop
      vertex 102.3 100.614 2
      vertex 102.3 100.614 -2
      vertex 100.7 100.614 2
    endloop
  endfacet
  facet normal 0 1 0
    outer loop
      vertex 100.7 100.614 2
      vertex 102.3 100.614 -2
      vertex 100.7 100.614 -2
    endloop
  endfacet
  facet normal -0.207601 -2.17207e-16 0.978214
    outer loop
      vertex -1.045 118.5 49.945
      vertex -1.045 133 49.945
      vertex -3 133 49.5301
    endloop
  endfacet
  facet normal -0.207601 -2.17207e-16 0.978214
    outer loop
      vertex -3 118.5 49.5301
      vertex -1.045 118.5 49.945
      vertex -3 133 49.5301
    endloop
  endfacet
  facet normal 0 -1 -2.22045e-16
    outer loop
      vertex -3 118.5 0
      vertex 0 118.5 0
      vertex 0 118.5 49.945
    endloop
  endfacet
  facet normal 0 -1 -2.22045e-16
    outer loop
      vertex -3 118.5 49.5301
      vertex -3 118.5 0
      vertex -1.045 118.5 49.945
    endloop
  endfacet
  facet normal 0 -1 -2.22045e-16
    outer loop
      vertex -1.045 118.5 49.945
      vertex -3 118.5 0
      vertex 0 118.5 49.945
    endloop
  endfacet
  facet normal 0 1 -2.22045e-16
    outer loop
      vertex -3 10.5 0
      vertex -3 10.5 49.5301
      vertex 0 10.5 0
    endloop
  endfacet
  facet normal 0 1 -2.22045e-16
    outer loop
      vertex 0 10.5 0
      vertex -3 10.5 49.5301
      vertex -1.045 10.5 49.945
    endloop
  endfacet
  facet normal 0 1 -2.22045e-16
    outer loop
      vertex 0 10.5 0
      vertex -1.045 10.5 49.945
      vertex 0 10.5 49.945
    endloop
  endfacet
  facet normal 8.49728e-17 0.92388 0.382683
    outer loop
      vertex 0 3.23223 8.23223
      vertex -3 3.23223 8.23223
      vertex 0 2.5 10
    endloop
  endfacet
  facet normal 8.49728e-17 0.92388 0.382683
    outer loop
      vertex 0 2.5 10
      vertex -3 3.23223 8.23223
      vertex -3 2.5 10
    endloop
  endfacet
  facet normal 2.05142e-16 0.382683 0.92388
    outer loop
      vertex 0 3.23223 8.23223
      vertex 0 5 7.5
      vertex -3 5 7.5
    endloop
  endfacet
  facet normal 2.05142e-16 0.382683 0.92388
    outer loop
      vertex -3 3.23223 8.23223
      vertex 0 3.23223 8.23223
      vertex -3 5 7.5
    endloop
  endfacet
  facet normal -8.49728e-17 0.92388 -0.382683
    outer loop
      vertex 0 3.23223 11.7678
      vertex 0 2.5 10
      vertex -3 3.23223 11.7678
    endloop
  endfacet
  facet normal -8.49728e-17 0.92388 -0.382683
    outer loop
      vertex -3 3.23223 11.7678
      vertex 0 2.5 10
      vertex -3 2.5 10
    endloop
  endfacet
  facet normal -2.05142e-16 0.382683 -0.92388
    outer loop
      vertex 0 5 12.5
      vertex 0 3.23223 11.7678
      vertex -3 5 12.5
    endloop
  endfacet
  facet normal -2.05142e-16 0.382683 -0.92388
    outer loop
      vertex -3 5 12.5
      vertex 0 3.23223 11.7678
      vertex -3 3.23223 11.7678
    endloop
  endfacet
  facet normal -2.05142e-16 -0.382683 -0.92388
    outer loop
      vertex 0 6.76777 11.7678
      vertex 0 5 12.5
      vertex -3 6.76777 11.7678
    endloop
  endfacet
  facet normal -2.05142e-16 -0.382683 -0.92388
    outer loop
      vertex -3 6.76777 11.7678
      vertex 0 5 12.5
      vertex -3 5 12.5
    endloop
  endfacet
  facet normal -8.49728e-17 -0.92388 -0.382683
    outer loop
      vertex -3 7.5 10
      vertex 0 7.5 10
      vertex 0 6.76777 11.7678
    endloop
  endfacet
  facet normal -8.49728e-17 -0.92388 -0.382683
    outer loop
      vertex -3 6.76777 11.7678
      vertex -3 7.5 10
      vertex 0 6.76777 11.7678
    endloop
  endfacet
  facet normal 8.49728e-17 -0.92388 0.382683
    outer loop
      vertex 0 6.76777 8.23223
      vertex 0 7.5 10
      vertex -3 7.5 10
    endloop
  endfacet
  facet normal 8.49728e-17 -0.92388 0.382683
    outer loop
      vertex -3 6.76777 8.23223
      vertex 0 6.76777 8.23223
      vertex -3 7.5 10
    endloop
  endfacet
  facet normal 2.05142e-16 -0.382683 0.92388
    outer loop
      vertex 0 5 7.5
      vertex 0 6.76777 8.23223
      vertex -3 6.76777 8.23223
    endloop
  endfacet
  facet normal 2.05142e-16 -0.382683 0.92388
    outer loop
      vertex -3 5 7.5
      vertex 0 5 7.5
      vertex -3 6.76777 8.23223
    endloop
  endfacet
  facet normal 2.05142e-16 0.382683 0.92388
    outer loop
      vertex 0 3.23223 38.2322
      vertex 0 5 37.5
      vertex -3 5 37.5
    endloop
  endfacet
  facet normal 2.05142e-16 0.382683 0.92388
    outer loop
      vertex -3 3.23223 38.2322
      vertex 0 3.23223 38.2322
      vertex -3 5 37.5
    endloop
  endfacet
  facet normal 8.49728e-17 0.92388 0.382683
    outer loop
      vertex 0 3.23223 38.2322
      vertex -3 3.23223 38.2322
      vertex 0 2.5 40
    endloop
  endfacet
  facet normal 8.49728e-17 0.92388 0.382683
    outer loop
      vertex 0 2.5 40
      vertex -3 3.23223 38.2322
      vertex -3 2.5 40
    endloop
  endfacet
  facet normal -8.49728e-17 0.92388 -0.382683
    outer loop
      vertex 0 3.23223 41.7678
      vertex 0 2.5 40
      vertex -3 3.23223 41.7678
    endloop
  endfacet
  facet normal -8.49728e-17 0.92388 -0.382683
    outer loop
      vertex -3 3.23223 41.7678
      vertex 0 2.5 40
      vertex -3 2.5 40
    endloop
  endfacet
  facet normal -2.05142e-16 0.382683 -0.92388
    outer loop
      vertex 0 5 42.5
      vertex 0 3.23223 41.7678
      vertex -3 5 42.5
    endloop
  endfacet
  facet normal -2.05142e-16 0.382683 -0.92388
    outer loop
      vertex -3 5 42.5
      vertex 0 3.23223 41.7678
      vertex -3 3.23223 41.7678
    endloop
  endfacet
  facet normal -2.05142e-16 -0.382683 -0.92388
    outer loop
      vertex 0 6.76777 41.7678
      vertex 0 5 42.5
      vertex -3 6.76777 41.7678
    endloop
  endfacet
  facet normal -2.05142e-16 -0.382683 -0.92388
    outer loop
      vertex -3 6.76777 41.7678
      vertex 0 5 42.5
      vertex -3 5 42.5
    endloop
  endfacet
  facet normal -8.49728e-17 -0.92388 -0.382683
    outer loop
      vertex -3 7.5 40
      vertex 0 7.5 40
      vertex 0 6.76777 41.7678
    endloop
  endfacet
  facet normal -8.49728e-17 -0.92388 -0.382683
    outer loop
      vertex -3 6.76777 41.7678
      vertex -3 7.5 40
      vertex 0 6.76777 41.7678
    endloop
  endfacet
  facet normal 8.49728e-17 -0.92388 0.382683
    outer loop
      vertex 0 6.76777 38.2322
      vertex 0 7.5 40
      vertex -3 7.5 40
    endloop
  endfacet
  facet normal 8.49728e-17 -0.92388 0.382683
    outer loop
      vertex -3 6.76777 38.2322
      vertex 0 6.76777 38.2322
      vertex -3 7.5 40
    endloop
  endfacet
  facet normal 2.05142e-16 -0.382683 0.92388
    outer loop
      vertex 0 5 37.5
      vertex 0 6.76777 38.2322
      vertex -3 6.76777 38.2322
    endloop
  endfacet
  facet normal 2.05142e-16 -0.382683 0.92388
    outer loop
      vertex -3 5 37.5
      vertex 0 5 37.5
      vertex -3 6.76777 38.2322
    endloop
  endfacet
  facet normal 8.49728e-17 0.92388 0.382683
    outer loop
      vertex -3 121.5 10
      vertex 0 121.5 10
      vertex -3 122.232 8.23223
    endloop
  endfacet
  facet normal 8.49728e-17 0.92388 0.382683
    outer loop
      vertex -3 122.232 8.23223
      vertex 0 121.5 10
      vertex 0 122.232 8.23223
    endloop
  endfacet
  facet normal 2.05142e-16 0.382683 0.92388
    outer loop
      vertex -3 124 7.5
      vertex -3 122.232 8.23223
      vertex 0 122.232 8.23223
    endloop
  endfacet
  facet normal 2.05142e-16 0.382683 0.92388
    outer loop
      vertex 0 124 7.5
      vertex -3 124 7.5
      vertex 0 122.232 8.23223
    endloop
  endfacet
  facet normal -8.49728e-17 0.92388 -0.382683
    outer loop
      vertex -3 121.5 10
      vertex -3 122.232 11.7678
      vertex 0 121.5 10
    endloop
  endfacet
  facet normal -8.49728e-17 0.92388 -0.382683
    outer loop
      vertex 0 121.5 10
      vertex -3 122.232 11.7678
      vertex 0 122.232 11.7678
    endloop
  endfacet
  facet normal -2.05142e-16 0.382683 -0.92388
    outer loop
      vertex -3 122.232 11.7678
      vertex -3 124 12.5
      vertex 0 122.232 11.7678
    endloop
  endfacet
  facet normal -2.05142e-16 0.382683 -0.92388
    outer loop
      vertex 0 122.232 11.7678
      vertex -3 124 12.5
      vertex 0 124 12.5
    endloop
  endfacet
  facet normal -2.05142e-16 -0.382683 -0.92388
    outer loop
      vertex -3 124 12.5
      vertex -3 125.768 11.7678
      vertex 0 124 12.5
    endloop
  endfacet
  facet normal -2.05142e-16 -0.382683 -0.92388
    outer loop
      vertex 0 124 12.5
      vertex -3 125.768 11.7678
      vertex 0 125.768 11.7678
    endloop
  endfacet
  facet normal -8.49728e-17 -0.92388 -0.382683
    outer loop
      vertex 0 125.768 11.7678
      vertex -3 125.768 11.7678
      vertex -3 126.5 10
    endloop
  endfacet
  facet normal -8.49728e-17 -0.92388 -0.382683
    outer loop
      vertex 0 126.5 10
      vertex 0 125.768 11.7678
      vertex -3 126.5 10
    endloop
  endfacet
  facet normal 8.49728e-17 -0.92388 0.382683
    outer loop
      vertex -3 126.5 10
      vertex -3 125.768 8.23223
      vertex 0 125.768 8.23223
    endloop
  endfacet
  facet normal 8.49728e-17 -0.92388 0.382683
    outer loop
      vertex 0 126.5 10
      vertex -3 126.5 10
      vertex 0 125.768 8.23223
    endloop
  endfacet
  facet normal 2.05142e-16 -0.382683 0.92388
    outer loop
      vertex -3 125.768 8.23223
      vertex -3 124 7.5
      vertex 0 124 7.5
    endloop
  endfacet
  facet normal 2.05142e-16 -0.382683 0.92388
    outer loop
      vertex 0 125.768 8.23223
      vertex -3 125.768 8.23223
      vertex 0 124 7.5
    endloop
  endfacet
  facet normal 8.49728e-17 0.92388 0.382683
    outer loop
      vertex -3 121.5 40
      vertex 0 121.5 40
      vertex -3 122.232 38.2322
    endloop
  endfacet
  facet normal 8.49728e-17 0.92388 0.382683
    outer loop
      vertex -3 122.232 38.2322
      vertex 0 121.5 40
      vertex 0 122.232 38.2322
    endloop
  endfacet
  facet normal 2.05142e-16 0.382683 0.92388
    outer loop
      vertex -3 124 37.5
      vertex -3 122.232 38.2322
      vertex 0 122.232 38.2322
    endloop
  endfacet
  facet normal 2.05142e-16 0.382683 0.92388
    outer loop
      vertex 0 124 37.5
      vertex -3 124 37.5
      vertex 0 122.232 38.2322
    endloop
  endfacet
  facet normal -8.49728e-17 0.92388 -0.382683
    outer loop
      vertex -3 121.5 40
      vertex -3 122.232 41.7678
      vertex 0 121.5 40
    endloop
  endfacet
  facet normal -8.49728e-17 0.92388 -0.382683
    outer loop
      vertex 0 121.5 40
      vertex -3 122.232 41.7678
      vertex 0 122.232 41.7678
    endloop
  endfacet
  facet normal -2.05142e-16 0.382683 -0.92388
    outer loop
      vertex -3 122.232 41.7678
      vertex -3 124 42.5
      vertex 0 122.232 41.7678
    endloop
  endfacet
  facet normal -2.05142e-16 0.382683 -0.92388
    outer loop
      vertex 0 122.232 41.7678
      vertex -3 124 42.5
      vertex 0 124 42.5
    endloop
  endfacet
  facet normal -2.05142e-16 -0.382683 -0.92388
    outer loop
      vertex -3 124 42.5
      vertex -3 125.768 41.7678
      vertex 0 124 42.5
    endloop
  endfacet
  facet normal -2.05142e-16 -0.382683 -0.92388
    outer loop
      vertex 0 124 42.5
      vertex -3 125.768 41.7678
      vertex 0 125.768 41.7678
    endloop
  endfacet
  facet normal -8.49728e-17 -0.92388 -0.382683
    outer loop
      vertex 0 125.768 41.7678
      vertex -3 125.768 41.7678
      vertex -3 126.5 40
    endloop
  endfacet
  facet normal -8.49728e-17 -0.92388 -0.382683
    outer loop
      vertex 0 126.5 40
      vertex 0 125.768 41.7678
      vertex -3 126.5 40
    endloop
  endfacet
  facet normal 8.49728e-17 -0.92388 0.382683
    outer loop
      vertex -3 126.5 40
      vertex -3 125.768 38.2322
      vertex 0 125.768 38.2322
    endloop
  endfacet
  facet normal 8.49728e-17 -0.92388 0.382683
    outer loop
      vertex 0 126.5 40
      vertex -3 126.5 40
      vertex 0 125.768 38.2322
    endloop
  endfacet
  facet normal 2.05142e-16 -0.382683 0.92388
    outer loop
      vertex -3 125.768 38.2322
      vertex -3 124 37.5
      vertex 0 124 37.5
    endloop
  endfacet
  facet normal 2.05142e-16 -0.382683 0.92388
    outer loop
      vertex 0 125.768 38.2322
      vertex -3 125.768 38.2322
      vertex 0 124 37.5
    endloop
  endfacet
  facet normal 1 0 0
    outer loop
      vertex 0 3.23223 41.7678
      vertex 0 10.5 49.945
      vertex 0 -0.2 49.945
    endloop
  endfacet
  facet normal 1 0 0
    outer loop
      vertex 0 7.5 10
      vertex 0 10.5 0
      vertex 0 -0.2 49.945
    endloop
  endfacet
  facet normal 1 0 0
    outer loop
      vertex 0 -0.2 0
      vertex 0 2.5 10
      vertex 0 -0.2 49.945
    endloop
  endfacet
  facet normal 1 0 0
    outer loop
      vertex 0 2.5 10
      vertex 0 3.23223 11.7678
      vertex 0 -0.2 49.945
    endloop
  endfacet
  facet normal 1 0 0
    outer loop
      vertex 0 3.23223 11.7678
      vertex 0 5 12.5
      vertex 0 -0.2 49.945
    endloop
  endfacet
  facet normal 1 0 0
    outer loop
      vertex 0 5 12.5
      vertex 0 6.76777 11.7678
      vertex 0 -0.2 49.945
    endloop
  endfacet
  facet normal 1 0 0
    outer loop
      vertex 0 6.76777 8.23223
      vertex 0 5 7.5
      vertex 0 10.5 0
    endloop
  endfacet
  facet normal 1 0 0
    outer loop
      vertex 0 6.76777 11.7678
      vertex 0 7.5 10
      vertex 0 -0.2 49.945
    endloop
  endfacet
  facet normal 1 0 0
    outer loop
      vertex 0 5 7.5
      vertex 0 3.23223 8.23223
      vertex 0 10.5 0
    endloop
  endfacet
  facet normal 1 0 0
    outer loop
      vertex 0 3.23223 41.7678
      vertex 0 5 42.5
      vertex 0 10.5 49.945
    endloop
  endfacet
  facet normal 1 0 0
    outer loop
      vertex 0 -0.2 0
      vertex 0 3.23223 8.23223
      vertex 0 2.5 10
    endloop
  endfacet
  facet normal 1 0 0
    outer loop
      vertex 0 -0.2 0
      vertex 0 10.5 0
      vertex 0 3.23223 8.23223
    endloop
  endfacet
  facet normal 1 0 0
    outer loop
      vertex 0 10.5 0
      vertex 0 2.5 40
      vertex 0 -0.2 49.945
    endloop
  endfacet
  facet normal 1 0 0
    outer loop
      vertex 0 2.5 40
      vertex 0 3.23223 41.7678
      vertex 0 -0.2 49.945
    endloop
  endfacet
  facet normal 1 0 0
    outer loop
      vertex 0 7.5 40
      vertex 0 6.76777 38.2322
      vertex 0 10.5 0
    endloop
  endfacet
  facet normal 1 0 0
    outer loop
      vertex 0 6.76777 41.7678
      vertex 0 10.5 49.945
      vertex 0 5 42.5
    endloop
  endfacet
  facet normal 1 0 0
    outer loop
      vertex 0 7.5 40
      vertex 0 10.5 49.945
      vertex 0 6.76777 41.7678
    endloop
  endfacet
  facet normal 1 0 0
    outer loop
      vertex 0 6.76777 38.2322
      vertex 0 5 37.5
      vertex 0 10.5 0
    endloop
  endfacet
  facet normal 1 0 0
    outer loop
      vertex 0 10.5 0
      vertex 0 10.5 49.945
      vertex 0 7.5 40
    endloop
  endfacet
  facet normal 1 0 0
    outer loop
      vertex 0 10.5 0
      vertex 0 3.23223 38.2322
      vertex 0 2.5 40
    endloop
  endfacet
  facet normal 1 0 0
    outer loop
      vertex 0 10.5 0
      vertex 0 5 37.5
      vertex 0 3.23223 38.2322
    endloop
  endfacet
  facet normal 1 0 0
    outer loop
      vertex 0 7.5 10
      vertex 0 6.76777 8.23223
      vertex 0 10.5 0
    endloop
  endfacet
  facet normal 0 1 0
    outer loop
      vertex 1.045 -0.2 49.945
      vertex 3.09 -0.2 49.511
      vertex 0 -0.2 49.945
    endloop
  endfacet
  facet normal 0 1 0
    outer loop
      vertex 0 -0.2 49.945
      vertex 3.09 -0.2 49.511
      vertex 5 -0.2 48.66
    endloop
  endfacet
  facet normal 0 1 0
    outer loop
      vertex 0 -0.2 49.945
      vertex 5 -0.2 48.66
      vertex 6.691 -0.2 47.431
    endloop
  endfacet
  facet normal 0 1 0
    outer loop
      vertex 0 -0.2 49.945
      vertex 6.691 -0.2 47.431
      vertex 8.09 -0.2 45.878
    endloop
  endfacet
  facet normal 0 1 0
    outer loop
      vertex 0 -0.2 49.945
      vertex 8.09 -0.2 45.878
      vertex 35.225 -0.2 14.695
    endloop
  endfacet
  facet normal 0 1 0
    outer loop
      vertex 0 -0.2 49.945
      vertex 35.225 -0.2 14.695
      vertex 37.839 -0.2 10.168
    endloop
  endfacet
  facet normal 0 1 0
    outer loop
      vertex 0 -0.2 49.945
      vertex 37.839 -0.2 10.168
      vertex 39.454 -0.2 5.198
    endloop
  endfacet
  facet normal 0 1 0
    outer loop
      vertex 0 -0.2 49.945
      vertex 39.454 -0.2 5.198
      vertex 40 -0.2 7.10543e-16
    endloop
  endfacet
  facet normal 0 1 0
    outer loop
      vertex 0 -0.2 49.945
      vertex 40 -0.2 7.10543e-16
      vertex 40 -0.2 0
    endloop
  endfacet
  facet normal 0 1 0
    outer loop
      vertex 0 -0.2 49.945
      vertex 40 -0.2 0
      vertex 0 -0.2 0
    endloop
  endfacet
  facet normal 1 0 0
    outer loop
      vertex 0 126.5 10
      vertex 0 130.2 0
      vertex 0 130.2 49.945
    endloop
  endfacet
  facet normal 1 0 0
    outer loop
      vertex 0 126.5 40
      vertex 0 118.5 0
      vertex 0 130.2 49.945
    endloop
  endfacet
  facet normal 1 0 0
    outer loop
      vertex 0 118.5 0
      vertex 0 121.5 10
      vertex 0 130.2 49.945
    endloop
  endfacet
  facet normal 1 0 0
    outer loop
      vertex 0 121.5 10
      vertex 0 122.232 11.7678
      vertex 0 130.2 49.945
    endloop
  endfacet
  facet normal 1 0 0
    outer loop
      vertex 0 122.232 11.7678
      vertex 0 124 12.5
      vertex 0 130.2 49.945
    endloop
  endfacet
  facet normal 1 0 0
    outer loop
      vertex 0 124 12.5
      vertex 0 125.768 11.7678
      vertex 0 130.2 49.945
    endloop
  endfacet
  facet normal 1 0 0
    outer loop
      vertex 0 125.768 8.23223
      vertex 0 124 7.5
      vertex 0 130.2 0
    endloop
  endfacet
  facet normal 1 0 0
    outer loop
      vertex 0 125.768 11.7678
      vertex 0 126.5 10
      vertex 0 130.2 49.945
    endloop
  endfacet
  facet normal 1 0 0
    outer loop
      vertex 0 124 7.5
      vertex 0 122.232 8.23223
      vertex 0 130.2 0
    endloop
  endfacet
  facet normal 1 0 0
    outer loop
      vertex 0 122.232 41.7678
      vertex 0 124 42.5
      vertex 0 130.2 49.945
    endloop
  endfacet
  facet normal 1 0 0
    outer loop
      vertex 0 118.5 0
      vertex 0 122.232 8.23223
      vertex 0 121.5 10
    endloop
  endfacet
  facet normal 1 0 0
    outer loop
      vertex 0 118.5 0
      vertex 0 130.2 0
      vertex 0 122.232 8.23223
    endloop
  endfacet
  facet normal 1 0 0
    outer loop
      vertex 0 125.768 38.2322
      vertex 0 124 37.5
      vertex 0 118.5 0
    endloop
  endfacet
  facet normal 1 0 0
    outer loop
      vertex 0 118.5 49.945
      vertex 0 118.5 0
      vertex 0 121.5 40
    endloop
  endfacet
  facet normal 1 0 0
    outer loop
      vertex 0 118.5 49.945
      vertex 0 122.232 41.7678
      vertex 0 130.2 49.945
    endloop
  endfacet
  facet normal 1 0 0
    outer loop
      vertex 0 118.5 49.945
      vertex 0 121.5 40
      vertex 0 122.232 41.7678
    endloop
  endfacet
  facet normal 1 0 0
    outer loop
      vertex 0 124 42.5
      vertex 0 125.768 41.7678
      vertex 0 130.2 49.945
    endloop
  endfacet
  facet normal 1 0 0
    outer loop
      vertex 0 125.768 41.7678
      vertex 0 126.5 40
      vertex 0 130.2 49.945
    endloop
  endfacet
  facet normal 1 0 0
    outer loop
      vertex 0 125.768 38.2322
      vertex 0 118.5 0
      vertex 0 126.5 40
    endloop
  endfacet
  facet normal 1 0 0
    outer loop
      vertex 0 124 37.5
      vertex 0 122.232 38.2322
      vertex 0 118.5 0
    endloop
  endfacet
  facet normal 1 0 0
    outer loop
      vertex 0 121.5 40
      vertex 0 118.5 0
      vertex 0 122.232 38.2322
    endloop
  endfacet
  facet normal 1 0 0
    outer loop
      vertex 0 126.5 10
      vertex 0 125.768 8.23223
      vertex 0 130.2 0
    endloop
  endfacet
  facet normal 0 -1 0
    outer loop
      vertex 11.4866 130.2 0
      vertex 40 130.2 0
      vertex 40 130.2 9.32587e-16
    endloop
  endfacet
  facet normal 0 -1 0
    outer loop
      vertex 37.839 130.2 10.168
      vertex 11.4866 130.2 0
      vertex 39.454 130.2 5.198
    endloop
  endfacet
  facet normal 0 -1 0
    outer loop
      vertex 39.454 130.2 5.198
      vertex 11.4866 130.2 0
      vertex 40 130.2 9.32587e-16
    endloop
  endfacet
  facet normal 0 -1 0
    outer loop
      vertex 35.225 130.2 14.695
      vertex 11.4866 130.2 0
      vertex 37.839 130.2 10.168
    endloop
  endfacet
  facet normal 0 -1 0
    outer loop
      vertex 8.09 130.2 45.878
      vertex 11.4866 130.2 0
      vertex 35.225 130.2 14.695
    endloop
  endfacet
  facet normal 0 -1 0
    outer loop
      vertex 6.691 130.2 47.431
      vertex 11.4866 130.2 0
      vertex 8.09 130.2 45.878
    endloop
  endfacet
  facet normal 0 -1 0
    outer loop
      vertex 5 130.2 48.66
      vertex 11.4866 130.2 0
      vertex 6.691 130.2 47.431
    endloop
  endfacet
  facet normal 0 -1 0
    outer loop
      vertex 3.09 130.2 49.511
      vertex 11.4866 130.2 0
      vertex 5 130.2 48.66
    endloop
  endfacet
  facet normal 0 -1 0
    outer loop
      vertex 1.045 130.2 49.945
      vertex 11.4866 130.2 0
      vertex 3.09 130.2 49.511
    endloop
  endfacet
  facet normal 0 -1 0
    outer loop
      vertex 0 130.2 49.945
      vertex 11.4866 130.2 0
      vertex 1.045 130.2 49.945
    endloop
  endfacet
  facet normal 0 -1 0
    outer loop
      vertex 0 130.2 0
      vertex 11.4866 130.2 0
      vertex 0 130.2 49.945
    endloop
  endfacet
  facet normal 0 0 1
    outer loop
      vertex 40 122.566 0
      vertex 40 126 0
      vertex 40 130.2 0
    endloop
  endfacet
  facet normal 0 0 1
    outer loop
      vertex 11.4866 130.2 0
      vertex 40 122.566 0
      vertex 40 130.2 0
    endloop
  endfacet
  facet normal 0.994528 -2.3196e-17 0.104466
    outer loop
      vertex 40 122.566 -7.62524e-16
      vertex 40 126 0
      vertex 40 122.566 0
    endloop
  endfacet
  facet normal -0.951057 0.309017 0
    outer loop
      vertex 0.5 3 0
      vertex 0.5 3 2
      vertex 1.07295 4.76336 0
    endloop
  endfacet
  facet normal -0.951057 0.309017 0
    outer loop
      vertex 1.07295 4.76336 0
      vertex 0.5 3 2
      vertex 1.07295 4.76336 2
    endloop
  endfacet
  facet normal -0.951057 -0.309017 0
    outer loop
      vertex 0.5 3 0
      vertex 1.07295 1.23664 0
      vertex 0.5 3 2
    endloop
  endfacet
  facet normal -0.951057 -0.309017 0
    outer loop
      vertex 0.5 3 2
      vertex 1.07295 1.23664 0
      vertex 1.07295 1.23664 2
    endloop
  endfacet
  facet normal -0.587785 -0.809017 0
    outer loop
      vertex 1.07295 1.23664 2
      vertex 1.07295 1.23664 0
      vertex 2.57295 0.14683 0
    endloop
  endfacet
  facet normal -0.587785 -0.809017 0
    outer loop
      vertex 2.57295 0.14683 2
      vertex 1.07295 1.23664 2
      vertex 2.57295 0.14683 0
    endloop
  endfacet
  facet normal 0 -1 0
    outer loop
      vertex 2.57295 0.14683 2
      vertex 2.57295 0.14683 0
      vertex 4.42705 0.14683 0
    endloop
  endfacet
  facet normal 0 -1 0
    outer loop
      vertex 4.42705 0.14683 2
      vertex 2.57295 0.14683 2
      vertex 4.42705 0.14683 0
    endloop
  endfacet
  facet normal 0.587785 -0.809017 0
    outer loop
      vertex 4.42705 0.14683 2
      vertex 4.42705 0.14683 0
      vertex 5.92705 1.23664 0
    endloop
  endfacet
  facet normal 0.587785 -0.809017 0
    outer loop
      vertex 5.92705 1.23664 2
      vertex 4.42705 0.14683 2
      vertex 5.92705 1.23664 0
    endloop
  endfacet
  facet normal 0.951057 -0.309017 0
    outer loop
      vertex 5.92705 1.23664 2
      vertex 5.92705 1.23664 0
      vertex 6.5 3 0
    endloop
  endfacet
  facet normal 0.951057 -0.309017 0
    outer loop
      vertex 6.5 3 2
      vertex 5.92705 1.23664 2
      vertex 6.5 3 0
    endloop
  endfacet
  facet normal 0.951057 0.309017 0
    outer loop
      vertex 6.5 3 0
      vertex 5.92705 4.76336 0
      vertex 5.92705 4.76336 2
    endloop
  endfacet
  facet normal 0.951057 0.309017 0
    outer loop
      vertex 6.5 3 2
      vertex 6.5 3 0
      vertex 5.92705 4.76336 2
    endloop
  endfacet
  facet normal 0.587785 0.809017 0
    outer loop
      vertex 4.42705 5.85317 0
      vertex 4.42705 5.85317 2
      vertex 5.92705 4.76336 0
    endloop
  endfacet
  facet normal 0.587785 0.809017 0
    outer loop
      vertex 5.92705 4.76336 0
      vertex 4.42705 5.85317 2
      vertex 5.92705 4.76336 2
    endloop
  endfacet
  facet normal 0 1 0
    outer loop
      vertex 2.57295 5.85317 0
      vertex 2.57295 5.85317 2
      vertex 4.42705 5.85317 0
    endloop
  endfacet
  facet normal 0 1 0
    outer loop
      vertex 4.42705 5.85317 0
      vertex 2.57295 5.85317 2
      vertex 4.42705 5.85317 2
    endloop
  endfacet
  facet normal -0.587785 0.809017 0
    outer loop
      vertex 1.07295 4.76336 0
      vertex 1.07295 4.76336 2
      vertex 2.57295 5.85317 0
    endloop
  endfacet
  facet normal -0.587785 0.809017 0
    outer loop
      vertex 2.57295 5.85317 0
      vertex 1.07295 4.76336 2
      vertex 2.57295 5.85317 2
    endloop
  endfacet
  facet normal -0.951057 0.309017 0
    outer loop
      vertex 0.5 102 0
      vertex 0.5 102 2
      vertex 1.07295 103.763 0
    endloop
  endfacet
  facet normal -0.951057 0.309017 0
    outer loop
      vertex 1.07295 103.763 0
      vertex 0.5 102 2
      vertex 1.07295 103.763 2
    endloop
  endfacet
  facet normal -0.951057 -0.309017 0
    outer loop
      vertex 0.5 102 0
      vertex 1.07295 100.237 0
      vertex 0.5 102 2
    endloop
  endfacet
  facet normal -0.951057 -0.309017 0
    outer loop
      vertex 0.5 102 2
      vertex 1.07295 100.237 0
      vertex 1.07295 100.237 2
    endloop
  endfacet
  facet normal -0.587785 -0.809017 0
    outer loop
      vertex 1.07295 100.237 2
      vertex 1.07295 100.237 0
      vertex 2.57295 99.1468 0
    endloop
  endfacet
  facet normal -0.587785 -0.809017 0
    outer loop
      vertex 2.57295 99.1468 2
      vertex 1.07295 100.237 2
      vertex 2.57295 99.1468 0
    endloop
  endfacet
  facet normal 0 -1 0
    outer loop
      vertex 2.57295 99.1468 2
      vertex 2.57295 99.1468 0
      vertex 4.42705 99.1468 0
    endloop
  endfacet
  facet normal 0 -1 0
    outer loop
      vertex 4.42705 99.1468 2
      vertex 2.57295 99.1468 2
      vertex 4.42705 99.1468 0
    endloop
  endfacet
  facet normal 0.587785 -0.809017 0
    outer loop
      vertex 4.42705 99.1468 2
      vertex 4.42705 99.1468 0
      vertex 5.92705 100.237 0
    endloop
  endfacet
  facet normal 0.587785 -0.809017 0
    outer loop
      vertex 5.92705 100.237 2
      vertex 4.42705 99.1468 2
      vertex 5.92705 100.237 0
    endloop
  endfacet
  facet normal 0.951057 -0.309017 0
    outer loop
      vertex 5.92705 100.237 2
      vertex 5.92705 100.237 0
      vertex 6.5 102 0
    endloop
  endfacet
  facet normal 0.951057 -0.309017 0
    outer loop
      vertex 6.5 102 2
      vertex 5.92705 100.237 2
      vertex 6.5 102 0
    endloop
  endfacet
  facet normal 0.951057 0.309017 0
    outer loop
      vertex 6.5 102 0
      vertex 5.92705 103.763 0
      vertex 5.92705 103.763 2
    endloop
  endfacet
  facet normal 0.951057 0.309017 0
    outer loop
      vertex 6.5 102 2
      vertex 6.5 102 0
      vertex 5.92705 103.763 2
    endloop
  endfacet
  facet normal 0.587785 0.809017 0
    outer loop
      vertex 4.42705 104.853 0
      vertex 4.42705 104.853 2
      vertex 5.92705 103.763 0
    endloop
  endfacet
  facet normal 0.587785 0.809017 0
    outer loop
      vertex 5.92705 103.763 0
      vertex 4.42705 104.853 2
      vertex 5.92705 103.763 2
    endloop
  endfacet
  facet normal 0 1 0
    outer loop
      vertex 2.57295 104.853 0
      vertex 2.57295 104.853 2
      vertex 4.42705 104.853 0
    endloop
  endfacet
  facet normal 0 1 0
    outer loop
      vertex 4.42705 104.853 0
      vertex 2.57295 104.853 2
      vertex 4.42705 104.853 2
    endloop
  endfacet
  facet normal -0.587785 0.809017 0
    outer loop
      vertex 1.07295 103.763 0
      vertex 1.07295 103.763 2
      vertex 2.57295 104.853 0
    endloop
  endfacet
  facet normal -0.587785 0.809017 0
    outer loop
      vertex 2.57295 104.853 0
      vertex 1.07295 103.763 2
      vertex 2.57295 104.853 2
    endloop
  endfacet
  facet normal -0.951057 0.309017 0
    outer loop
      vertex 93.23 9 0
      vertex 93.23 9 2
      vertex 93.8029 10.7634 0
    endloop
  endfacet
  facet normal -0.951057 0.309017 0
    outer loop
      vertex 93.8029 10.7634 0
      vertex 93.23 9 2
      vertex 93.8029 10.7634 2
    endloop
  endfacet
  facet normal -0.951057 -0.309017 0
    outer loop
      vertex 93.23 9 0
      vertex 93.8029 7.23664 0
      vertex 93.23 9 2
    endloop
  endfacet
  facet normal -0.951057 -0.309017 0
    outer loop
      vertex 93.23 9 2
      vertex 93.8029 7.23664 0
      vertex 93.8029 7.23664 2
    endloop
  endfacet
  facet normal -0.587785 -0.809017 0
    outer loop
      vertex 93.8029 7.23664 2
      vertex 93.8029 7.23664 0
      vertex 95.3029 6.14683 0
    endloop
  endfacet
  facet normal -0.587785 -0.809017 0
    outer loop
      vertex 95.3029 6.14683 2
      vertex 93.8029 7.23664 2
      vertex 95.3029 6.14683 0
    endloop
  endfacet
  facet normal 0 -1 0
    outer loop
      vertex 95.3029 6.14683 2
      vertex 95.3029 6.14683 0
      vertex 97.1571 6.14683 0
    endloop
  endfacet
  facet normal 0 -1 0
    outer loop
      vertex 97.1571 6.14683 2
      vertex 95.3029 6.14683 2
      vertex 97.1571 6.14683 0
    endloop
  endfacet
  facet normal 0.587785 -0.809017 0
    outer loop
      vertex 97.1571 6.14683 2
      vertex 97.1571 6.14683 0
      vertex 98.6571 7.23664 0
    endloop
  endfacet
  facet normal 0.587785 -0.809017 0
    outer loop
      vertex 98.6571 7.23664 2
      vertex 97.1571 6.14683 2
      vertex 98.6571 7.23664 0
    endloop
  endfacet
  facet normal 0.951057 -0.309017 0
    outer loop
      vertex 98.6571 7.23664 2
      vertex 98.6571 7.23664 0
      vertex 99.23 9 0
    endloop
  endfacet
  facet normal 0.951057 -0.309017 0
    outer loop
      vertex 99.23 9 2
      vertex 98.6571 7.23664 2
      vertex 99.23 9 0
    endloop
  endfacet
  facet normal 0.951057 0.309017 0
    outer loop
      vertex 99.23 9 0
      vertex 98.6571 10.7634 0
      vertex 98.6571 10.7634 2
    endloop
  endfacet
  facet normal 0.951057 0.309017 0
    outer loop
      vertex 99.23 9 2
      vertex 99.23 9 0
      vertex 98.6571 10.7634 2
    endloop
  endfacet
  facet normal 0.587785 0.809017 0
    outer loop
      vertex 97.1571 11.8532 0
      vertex 97.1571 11.8532 2
      vertex 98.6571 10.7634 0
    endloop
  endfacet
  facet normal 0.587785 0.809017 0
    outer loop
      vertex 98.6571 10.7634 0
      vertex 97.1571 11.8532 2
      vertex 98.6571 10.7634 2
    endloop
  endfacet
  facet normal 0 1 0
    outer loop
      vertex 95.3029 11.8532 0
      vertex 95.3029 11.8532 2
      vertex 97.1571 11.8532 0
    endloop
  endfacet
  facet normal 0 1 0
    outer loop
      vertex 97.1571 11.8532 0
      vertex 95.3029 11.8532 2
      vertex 97.1571 11.8532 2
    endloop
  endfacet
  facet normal -0.587785 0.809017 0
    outer loop
      vertex 93.8029 10.7634 0
      vertex 93.8029 10.7634 2
      vertex 95.3029 11.8532 0
    endloop
  endfacet
  facet normal -0.587785 0.809017 0
    outer loop
      vertex 95.3029 11.8532 0
      vertex 93.8029 10.7634 2
      vertex 95.3029 11.8532 2
    endloop
  endfacet
  facet normal -0.951057 0.309017 0
    outer loop
      vertex 98.5 102 0
      vertex 98.5 102 2
      vertex 99.0729 103.763 0
    endloop
  endfacet
  facet normal -0.951057 0.309017 0
    outer loop
      vertex 99.0729 103.763 0
      vertex 98.5 102 2
      vertex 99.0729 103.763 2
    endloop
  endfacet
  facet normal -0.951057 -0.309017 0
    outer loop
      vertex 98.5 102 0
      vertex 99.0729 100.237 0
      vertex 98.5 102 2
    endloop
  endfacet
  facet normal -0.951057 -0.309017 0
    outer loop
      vertex 98.5 102 2
      vertex 99.0729 100.237 0
      vertex 99.0729 100.237 2
    endloop
  endfacet
  facet normal -0.587785 -0.809017 0
    outer loop
      vertex 99.0729 100.237 2
      vertex 99.0729 100.237 0
      vertex 100.573 99.1468 0
    endloop
  endfacet
  facet normal -0.587785 -0.809017 0
    outer loop
      vertex 100.573 99.1468 2
      vertex 99.0729 100.237 2
      vertex 100.573 99.1468 0
    endloop
  endfacet
  facet normal 0 -1 0
    outer loop
      vertex 100.573 99.1468 2
      vertex 100.573 99.1468 0
      vertex 102.427 99.1468 0
    endloop
  endfacet
  facet normal 0 -1 0
    outer loop
      vertex 102.427 99.1468 2
      vertex 100.573 99.1468 2
      vertex 102.427 99.1468 0
    endloop
  endfacet
  facet normal 0.587785 -0.809017 0
    outer loop
      vertex 102.427 99.1468 2
      vertex 102.427 99.1468 0
      vertex 103.927 100.237 0
    endloop
  endfacet
  facet normal 0.587785 -0.809017 0
    outer loop
      vertex 103.927 100.237 2
      vertex 102.427 99.1468 2
      vertex 103.927 100.237 0
    endloop
  endfacet
  facet normal 0.951057 -0.309017 0
    outer loop
      vertex 103.927 100.237 2
      vertex 103.927 100.237 0
      vertex 104.5 102 0
    endloop
  endfacet
  facet normal 0.951057 -0.309017 0
    outer loop
      vertex 104.5 102 2
      vertex 103.927 100.237 2
      vertex 104.5 102 0
    endloop
  endfacet
  facet normal 0.951057 0.309017 0
    outer loop
      vertex 104.5 102 0
      vertex 103.927 103.763 0
      vertex 103.927 103.763 2
    endloop
  endfacet
  facet normal 0.951057 0.309017 0
    outer loop
      vertex 104.5 102 2
      vertex 104.5 102 0
      vertex 103.927 103.763 2
    endloop
  endfacet
  facet normal 0.587785 0.809017 0
    outer loop
      vertex 102.427 104.853 0
      vertex 102.427 104.853 2
      vertex 103.927 103.763 0
    endloop
  endfacet
  facet normal 0.587785 0.809017 0
    outer loop
      vertex 103.927 103.763 0
      vertex 102.427 104.853 2
      vertex 103.927 103.763 2
    endloop
  endfacet
  facet normal 0 1 0
    outer loop
      vertex 100.573 104.853 0
      vertex 100.573 104.853 2
      vertex 102.427 104.853 0
    endloop
  endfacet
  facet normal 0 1 0
    outer loop
      vertex 102.427 104.853 0
      vertex 100.573 104.853 2
      vertex 102.427 104.853 2
    endloop
  endfacet
  facet normal -0.587785 0.809017 0
    outer loop
      vertex 99.0729 103.763 0
      vertex 99.0729 103.763 2
      vertex 100.573 104.853 0
    endloop
  endfacet
  facet normal -0.587785 0.809017 0
    outer loop
      vertex 100.573 104.853 0
      vertex 99.0729 103.763 2
      vertex 100.573 104.853 2
    endloop
  endfacet
  facet normal 0.994528 -2.3196e-17 0.104466
    outer loop
      vertex 40 130.2 9.32587e-16
      vertex 40 133 1.55431e-15
      vertex 39.454 133 5.198
    endloop
  endfacet
  facet normal 0.994528 -2.3196e-17 0.104466
    outer loop
      vertex 39.454 130.2 5.198
      vertex 40 130.2 9.32587e-16
      vertex 39.454 133 5.198
    endloop
  endfacet
  facet normal 0.951048 -6.86213e-17 0.309043
    outer loop
      vertex 39.454 130.2 5.198
      vertex 39.454 133 5.198
      vertex 37.839 133 10.168
    endloop
  endfacet
  facet normal 0.951048 -6.86213e-17 0.309043
    outer loop
      vertex 37.839 130.2 10.168
      vertex 39.454 130.2 5.198
      vertex 37.839 133 10.168
    endloop
  endfacet
  facet normal 0.865998 -1.11033e-16 0.500048
    outer loop
      vertex 37.839 130.2 10.168
      vertex 37.839 133 10.168
      vertex 35.225 133 14.695
    endloop
  endfacet
  facet normal 0.865998 -1.11033e-16 0.500048
    outer loop
      vertex 35.225 130.2 14.695
      vertex 37.839 130.2 10.168
      vertex 35.225 133 14.695
    endloop
  endfacet
  facet normal 0.754374 -1.4576e-16 0.656445
    outer loop
      vertex 35.225 130.2 14.695
      vertex 35.225 133 14.695
      vertex 8.09 133 45.878
    endloop
  endfacet
  facet normal 0.754374 -1.4576e-16 0.656445
    outer loop
      vertex 8.09 130.2 45.878
      vertex 35.225 130.2 14.695
      vertex 8.09 133 45.878
    endloop
  endfacet
  facet normal 0.742985 -1.48616e-16 0.669308
    outer loop
      vertex 8.09 130.2 45.878
      vertex 8.09 133 45.878
      vertex 6.691 133 47.431
    endloop
  endfacet
  facet normal 0.742985 -1.48616e-16 0.669308
    outer loop
      vertex 6.691 130.2 47.431
      vertex 8.09 130.2 45.878
      vertex 6.691 133 47.431
    endloop
  endfacet
  facet normal 0.587916 -1.79617e-16 0.808922
    outer loop
      vertex 6.691 130.2 47.431
      vertex 6.691 133 47.431
      vertex 5 133 48.66
    endloop
  endfacet
  facet normal 0.587916 -1.79617e-16 0.808922
    outer loop
      vertex 5 130.2 48.66
      vertex 6.691 130.2 47.431
      vertex 5 133 48.66
    endloop
  endfacet
  facet normal 0.406981 -2.02824e-16 0.913436
    outer loop
      vertex 5 130.2 48.66
      vertex 5 133 48.66
      vertex 3.09 133 49.511
    endloop
  endfacet
  facet normal 0.406981 -2.02824e-16 0.913436
    outer loop
      vertex 3.09 130.2 49.511
      vertex 5 130.2 48.66
      vertex 3.09 133 49.511
    endloop
  endfacet
  facet normal 0.207601 -2.17207e-16 0.978214
    outer loop
      vertex 3.09 130.2 49.511
      vertex 3.09 133 49.511
      vertex 1.045 133 49.945
    endloop
  endfacet
  facet normal 0.207601 -2.17207e-16 0.978214
    outer loop
      vertex 1.045 130.2 49.945
      vertex 3.09 130.2 49.511
      vertex 1.045 133 49.945
    endloop
  endfacet
  facet normal 0 -2.22045e-16 1
    outer loop
      vertex 1.045 133 49.945
      vertex 0 130.2 49.945
      vertex 1.045 130.2 49.945
    endloop
  endfacet
  facet normal 0 -2.22045e-16 1
    outer loop
      vertex -1.045 133 49.945
      vertex 0 130.2 49.945
      vertex 1.045 133 49.945
    endloop
  endfacet
  facet normal 0 -2.22045e-16 1
    outer loop
      vertex 0 118.5 49.945
      vertex 0 130.2 49.945
      vertex -1.045 133 49.945
    endloop
  endfacet
  facet normal 0 -2.22045e-16 1
    outer loop
      vertex -1.045 118.5 49.945
      vertex 0 118.5 49.945
      vertex -1.045 133 49.945
    endloop
  endfacet
  facet normal 0 0 1
    outer loop
      vertex 1.07295 4.76336 2
      vertex 0.5 3 2
      vertex 1.07295 1.23664 2
    endloop
  endfacet
  facet normal 0 0 1
    outer loop
      vertex 1.9 3 2
      vertex 1.07295 4.76336 2
      vertex 2.57295 0.14683 2
    endloop
  endfacet
  facet normal 0 0 1
    outer loop
      vertex 2.57295 0.14683 2
      vertex 1.07295 4.76336 2
      vertex 1.07295 1.23664 2
    endloop
  endfacet
  facet normal 0 0 1
    outer loop
      vertex 4.42705 5.85317 2
      vertex 1.07295 4.76336 2
      vertex 5.92705 4.76336 2
    endloop
  endfacet
  facet normal 0 0 1
    outer loop
      vertex 2.57295 5.85317 2
      vertex 1.07295 4.76336 2
      vertex 4.42705 5.85317 2
    endloop
  endfacet
  facet normal 0 0 1
    outer loop
      vertex 4.42705 0.14683 2
      vertex 2.7 1.61436 2
      vertex 2.57295 0.14683 2
    endloop
  endfacet
  facet normal 0 0 1
    outer loop
      vertex 2.7 1.61436 2
      vertex 1.9 3 2
      vertex 2.57295 0.14683 2
    endloop
  endfacet
  facet normal 0 0 1
    outer loop
      vertex 5.1 3 2
      vertex 4.3 1.61436 2
      vertex 5.92705 1.23664 2
    endloop
  endfacet
  facet normal 0 0 1
    outer loop
      vertex 5.92705 4.76336 2
      vertex 1.07295 4.76336 2
      vertex 2.7 4.38564 2
    endloop
  endfacet
  facet normal 0 0 1
    outer loop
      vertex 5.92705 4.76336 2
      vertex 4.3 4.38564 2
      vertex 6.5 3 2
    endloop
  endfacet
  facet normal 0 0 1
    outer loop
      vertex 5.92705 4.76336 2
      vertex 2.7 4.38564 2
      vertex 4.3 4.38564 2
    endloop
  endfacet
  facet normal 0 0 1
    outer loop
      vertex 6.5 3 2
      vertex 5.1 3 2
      vertex 5.92705 1.23664 2
    endloop
  endfacet
  facet normal 0 0 1
    outer loop
      vertex 4.3 4.38564 2
      vertex 5.1 3 2
      vertex 6.5 3 2
    endloop
  endfacet
  facet normal 0 0 1
    outer loop
      vertex 5.92705 1.23664 2
      vertex 4.3 1.61436 2
      vertex 4.42705 0.14683 2
    endloop
  endfacet
  facet normal 0 0 1
    outer loop
      vertex 4.3 1.61436 2
      vertex 2.7 1.61436 2
      vertex 4.42705 0.14683 2
    endloop
  endfacet
  facet normal 0 0 1
    outer loop
      vertex 1.9 3 2
      vertex 2.7 4.38564 2
      vertex 1.07295 4.76336 2
    endloop
  endfacet
  facet normal 0 0 1
    outer loop
      vertex 1.07295 103.763 2
      vertex 0.5 102 2
      vertex 1.07295 100.237 2
    endloop
  endfacet
  facet normal 0 0 1
    outer loop
      vertex 1.9 102 2
      vertex 1.07295 103.763 2
      vertex 2.57295 99.1468 2
    endloop
  endfacet
  facet normal 0 0 1
    outer loop
      vertex 2.57295 99.1468 2
      vertex 1.07295 103.763 2
      vertex 1.07295 100.237 2
    endloop
  endfacet
  facet normal 0 0 1
    outer loop
      vertex 4.42705 104.853 2
      vertex 1.07295 103.763 2
      vertex 5.92705 103.763 2
    endloop
  endfacet
  facet normal 0 0 1
    outer loop
      vertex 2.57295 104.853 2
      vertex 1.07295 103.763 2
      vertex 4.42705 104.853 2
    endloop
  endfacet
  facet normal 0 0 1
    outer loop
      vertex 4.42705 99.1468 2
      vertex 2.7 100.614 2
      vertex 2.57295 99.1468 2
    endloop
  endfacet
  facet normal 0 0 1
    outer loop
      vertex 2.7 100.614 2
      vertex 1.9 102 2
      vertex 2.57295 99.1468 2
    endloop
  endfacet
  facet normal 0 0 1
    outer loop
      vertex 5.1 102 2
      vertex 4.3 100.614 2
      vertex 5.92705 100.237 2
    endloop
  endfacet
  facet normal 0 0 1
    outer loop
      vertex 5.92705 103.763 2
      vertex 1.07295 103.763 2
      vertex 2.7 103.386 2
    endloop
  endfacet
  facet normal 0 0 1
    outer loop
      vertex 5.92705 103.763 2
      vertex 4.3 103.386 2
      vertex 6.5 102 2
    endloop
  endfacet
  facet normal 0 0 1
    outer loop
      vertex 5.92705 103.763 2
      vertex 2.7 103.386 2
      vertex 4.3 103.386 2
    endloop
  endfacet
  facet normal 0 0 1
    outer loop
      vertex 6.5 102 2
      vertex 5.1 102 2
      vertex 5.92705 100.237 2
    endloop
  endfacet
  facet normal 0 0 1
    outer loop
      vertex 4.3 103.386 2
      vertex 5.1 102 2
      vertex 6.5 102 2
    endloop
  endfacet
  facet normal 0 0 1
    outer loop
      vertex 5.92705 100.237 2
      vertex 4.3 100.614 2
      vertex 4.42705 99.1468 2
    endloop
  endfacet
  facet normal 0 0 1
    outer loop
      vertex 4.3 100.614 2
      vertex 2.7 100.614 2
      vertex 4.42705 99.1468 2
    endloop
  endfacet
  facet normal 0 0 1
    outer loop
      vertex 1.9 102 2
      vertex 2.7 103.386 2
      vertex 1.07295 103.763 2
    endloop
  endfacet
  facet normal 0 0 1
    outer loop
      vertex 93.8029 10.7634 2
      vertex 93.23 9 2
      vertex 93.8029 7.23664 2
    endloop
  endfacet
  facet normal 0 0 1
    outer loop
      vertex 94.63 9 2
      vertex 93.8029 10.7634 2
      vertex 95.3029 6.14683 2
    endloop
  endfacet
  facet normal 0 0 1
    outer loop
      vertex 95.3029 6.14683 2
      vertex 93.8029 10.7634 2
      vertex 93.8029 7.23664 2
    endloop
  endfacet
  facet normal 0 0 1
    outer loop
      vertex 97.1571 11.8532 2
      vertex 93.8029 10.7634 2
      vertex 98.6571 10.7634 2
    endloop
  endfacet
  facet normal 0 0 1
    outer loop
      vertex 95.3029 11.8532 2
      vertex 93.8029 10.7634 2
      vertex 97.1571 11.8532 2
    endloop
  endfacet
  facet normal 0 0 1
    outer loop
      vertex 97.1571 6.14683 2
      vertex 95.43 7.61436 2
      vertex 95.3029 6.14683 2
    endloop
  endfacet
  facet normal 0 0 1
    outer loop
      vertex 95.43 7.61436 2
      vertex 94.63 9 2
      vertex 95.3029 6.14683 2
    endloop
  endfacet
  facet normal 0 0 1
    outer loop
      vertex 97.83 9 2
      vertex 97.03 7.61436 2
      vertex 98.6571 7.23664 2
    endloop
  endfacet
  facet normal 0 0 1
    outer loop
      vertex 98.6571 10.7634 2
      vertex 93.8029 10.7634 2
      vertex 95.43 10.3856 2
    endloop
  endfacet
  facet normal 0 0 1
    outer loop
      vertex 98.6571 10.7634 2
      vertex 97.03 10.3856 2
      vertex 99.23 9 2
    endloop
  endfacet
  facet normal 0 0 1
    outer loop
      vertex 98.6571 10.7634 2
      vertex 95.43 10.3856 2
      vertex 97.03 10.3856 2
    endloop
  endfacet
  facet normal 0 0 1
    outer loop
      vertex 99.23 9 2
      vertex 97.83 9 2
      vertex 98.6571 7.23664 2
    endloop
  endfacet
  facet normal 0 0 1
    outer loop
      vertex 97.03 10.3856 2
      vertex 97.83 9 2
      vertex 99.23 9 2
    endloop
  endfacet
  facet normal 0 0 1
    outer loop
      vertex 98.6571 7.23664 2
      vertex 97.03 7.61436 2
      vertex 97.1571 6.14683 2
    endloop
  endfacet
  facet normal 0 0 1
    outer loop
      vertex 97.03 7.61436 2
      vertex 95.43 7.61436 2
      vertex 97.1571 6.14683 2
    endloop
  endfacet
  facet normal 0 0 1
    outer loop
      vertex 94.63 9 2
      vertex 95.43 10.3856 2
      vertex 93.8029 10.7634 2
    endloop
  endfacet
  facet normal 0 0 1
    outer loop
      vertex 99.0729 103.763 2
      vertex 98.5 102 2
      vertex 99.0729 100.237 2
    endloop
  endfacet
  facet normal 0 0 1
    outer loop
      vertex 99.9 102 2
      vertex 99.0729 103.763 2
      vertex 100.573 99.1468 2
    endloop
  endfacet
  facet normal 0 0 1
    outer loop
      vertex 100.573 99.1468 2
      vertex 99.0729 103.763 2
      vertex 99.0729 100.237 2
    endloop
  endfacet
  facet normal 0 0 1
    outer loop
      vertex 102.427 104.853 2
      vertex 99.0729 103.763 2
      vertex 103.927 103.763 2
    endloop
  endfacet
  facet normal 0 0 1
    outer loop
      vertex 100.573 104.853 2
      vertex 99.0729 103.763 2
      vertex 102.427 104.853 2
    endloop
  endfacet
  facet normal 0 0 1
    outer loop
      vertex 102.427 99.1468 2
      vertex 100.7 100.614 2
      vertex 100.573 99.1468 2
    endloop
  endfacet
  facet normal 0 0 1
    outer loop
      vertex 100.7 100.614 2
      vertex 99.9 102 2
      vertex 100.573 99.1468 2
    endloop
  endfacet
  facet normal 0 0 1
    outer loop
      vertex 103.1 102 2
      vertex 102.3 100.614 2
      vertex 103.927 100.237 2
    endloop
  endfacet
  facet normal 0 0 1
    outer loop
      vertex 103.927 103.763 2
      vertex 99.0729 103.763 2
      vertex 100.7 103.386 2
    endloop
  endfacet
  facet normal 0 0 1
    outer loop
      vertex 103.927 103.763 2
      vertex 102.3 103.386 2
      vertex 104.5 102 2
    endloop
  endfacet
  facet normal 0 0 1
    outer loop
      vertex 103.927 103.763 2
      vertex 100.7 103.386 2
      vertex 102.3 103.386 2
    endloop
  endfacet
  facet normal 0 0 1
    outer loop
      vertex 104.5 102 2
      vertex 103.1 102 2
      vertex 103.927 100.237 2
    endloop
  endfacet
  facet normal 0 0 1
    outer loop
      vertex 102.3 103.386 2
      vertex 103.1 102 2
      vertex 104.5 102 2
    endloop
  endfacet
  facet normal 0 0 1
    outer loop
      vertex 103.927 100.237 2
      vertex 102.3 100.614 2
      vertex 102.427 99.1468 2
    endloop
  endfacet
  facet normal 0 0 1
    outer loop
      vertex 102.3 100.614 2
      vertex 100.7 100.614 2
      vertex 102.427 99.1468 2
    endloop
  endfacet
  facet normal 0 0 1
    outer loop
      vertex 99.9 102 2
      vertex 100.7 103.386 2
      vertex 99.0729 103.763 2
    endloop
  endfacet
endsolid OpenSCAD_Model
